<svg width="191" height="150" viewBox="0 0 191 150" fill="none" xmlns="http://www.w3.org/2000/svg">
<path d="M129.275 8.05408H57.54V90.6576H129.275V8.05408Z" fill="#FFD2B2"/>
<path d="M107.307 82.2613C102.667 77.8671 98.0378 73.4709 93.4193 69.0728L79.5345 82.2613L57.5518 64.6289V56.291H47.1484V113.015H139.69V56.291H129.287V64.6347L107.307 82.2613Z" fill="#FEC949"/>
<mask id="mask0_142_988" style="mask-type:luminance" maskUnits="userSpaceOnUse" x="47" y="56" width="93" height="58">
<path d="M107.307 82.2613C102.667 77.8671 98.0378 73.4709 93.4193 69.0728L79.5345 82.2613L57.5518 64.6289V56.291H47.1484V113.015H139.69V56.291H129.287V64.6347L107.307 82.2613Z" fill="white"/>
</mask>
<g mask="url(#mask0_142_988)">
<g style="mix-blend-mode:overlay">
<path d="M81.623 101.474C81.5508 101.502 81.4859 101.546 81.4328 101.602C81.2968 101.716 81.1853 101.857 81.1051 102.015C81.0644 102.093 81.0407 102.179 81.0357 102.268C81.0307 102.356 81.0443 102.444 81.0759 102.527C81.0841 102.552 81.0976 102.574 81.1153 102.594C81.133 102.613 81.1546 102.628 81.1787 102.638C81.2028 102.649 81.2288 102.654 81.2549 102.653C81.2811 102.652 81.3068 102.646 81.3304 102.635C81.4633 102.601 81.5898 102.546 81.7049 102.471C81.7689 102.436 81.8287 102.394 81.8834 102.345C82.0852 102.152 82.1759 101.696 81.898 101.52C81.8587 101.492 81.8135 101.473 81.7659 101.465C81.7182 101.457 81.6694 101.46 81.623 101.474ZM74.3324 100.005C74.2063 100.014 74.0836 100.05 73.9726 100.11C73.8337 100.17 73.6979 100.238 73.5659 100.312C73.5499 100.321 73.5367 100.334 73.5279 100.35C73.5104 100.391 73.5601 100.429 73.601 100.444C73.7474 100.488 73.9027 100.493 74.0516 100.458C74.1577 100.448 74.2588 100.408 74.3441 100.344C74.429 100.268 74.5402 100.008 74.3324 100.005ZM70.5058 105.101C70.5689 105.16 70.6451 105.203 70.7281 105.227C70.7699 105.238 70.8141 105.234 70.8537 105.217C70.8934 105.201 70.9264 105.171 70.9475 105.133C70.9665 105.079 70.9665 105.021 70.9475 104.967C70.8802 104.779 70.7813 104.604 70.655 104.449L70.4531 104.174C70.2864 103.946 70.1196 103.715 69.9382 103.498C69.8622 103.404 69.6896 103.241 69.5784 103.384C69.4672 103.527 69.5784 103.717 69.6018 103.84C69.7027 104.159 69.8714 104.453 70.0962 104.7C70.2209 104.846 70.3579 104.98 70.5058 105.101ZM65.6961 108.36C65.6377 108.535 65.6207 108.722 65.6464 108.905C65.6616 108.996 65.7016 109.081 65.762 109.151C65.8223 109.221 65.9007 109.274 65.9887 109.302C66.0473 109.319 66.1098 109.315 66.166 109.292C66.2222 109.268 66.269 109.227 66.2988 109.174C66.3274 109.077 66.3191 108.972 66.2754 108.881C66.2344 108.767 66.1964 108.653 66.1584 108.536C66.1295 108.44 66.0882 108.349 66.0355 108.264C65.9009 108.074 65.7488 108.164 65.6961 108.36ZM83.0419 113.413C83.0215 113.531 83.0378 113.652 83.0887 113.761C83.1608 113.949 83.2593 114.125 83.3812 114.285C83.4368 114.358 83.5129 114.434 83.6036 114.422C83.6943 114.41 83.7586 114.282 83.7557 114.179C83.7457 114.055 83.713 113.934 83.6592 113.822C83.6065 113.682 83.2116 112.798 83.0419 113.413ZM77.6266 107.442C77.5044 107.424 77.3803 107.424 77.258 107.442C77.0708 107.442 76.8865 107.477 76.6992 107.5C76.626 107.5 76.5534 107.513 76.4856 107.541C76.4178 107.569 76.3562 107.61 76.3043 107.661C76.2595 107.747 76.2447 107.846 76.2622 107.941C76.2797 108.036 76.3284 108.123 76.4008 108.188C76.5192 108.306 76.6554 108.405 76.8045 108.48C76.9744 108.583 77.1603 108.658 77.3546 108.7C77.5504 108.741 77.7548 108.706 77.925 108.6C78.4048 108.246 78.1445 107.55 77.6266 107.442ZM86.1459 109.776C86.0062 109.816 85.8701 109.868 85.7393 109.931C85.6526 109.951 85.5758 110.001 85.5228 110.072C85.4672 110.186 85.5725 110.323 85.6924 110.364C85.8177 110.38 85.945 110.359 86.0581 110.303L86.3507 110.195C86.7456 110.028 86.4823 109.709 86.1459 109.776ZM87.0294 105.561C86.992 105.537 86.9477 105.527 86.9036 105.531C86.8833 105.539 86.865 105.552 86.85 105.567C86.835 105.583 86.8236 105.602 86.8166 105.623C86.8096 105.643 86.8073 105.665 86.8097 105.687C86.8121 105.708 86.8192 105.729 86.8305 105.748C86.881 105.821 86.9555 105.875 87.0411 105.9C87.1406 105.941 87.6087 106.154 87.6672 105.958C87.7257 105.762 87.1406 105.613 87.0294 105.561ZM111.528 98.5919C111.435 98.5573 111.335 98.5433 111.236 98.5509C111.022 98.5439 110.808 98.5776 110.607 98.6504C110.506 98.6879 110.414 98.746 110.337 98.8211C110.26 98.8961 110.199 98.9865 110.159 99.0863C110.15 99.1248 110.15 99.1648 110.159 99.2033C110.17 99.2438 110.189 99.2815 110.216 99.3138C110.243 99.3461 110.276 99.3723 110.314 99.3906C110.46 99.4701 110.618 99.5245 110.782 99.5515C110.868 99.5737 110.957 99.5845 111.045 99.5836C111.382 99.5836 111.832 99.2384 111.733 98.861C111.722 98.8036 111.697 98.7495 111.662 98.7028C111.626 98.6562 111.581 98.6183 111.528 98.5919ZM106.218 91.2926C106.098 91.1958 105.958 91.126 105.809 91.0878C105.636 91.0275 105.46 90.9776 105.282 90.9386C105.262 90.9312 105.24 90.9312 105.221 90.9386C105.171 90.962 105.183 91.0351 105.206 91.0819C105.299 91.242 105.434 91.3743 105.595 91.4652C105.697 91.5381 105.816 91.5835 105.94 91.5968C106.09 91.6056 106.4 91.4622 106.218 91.2926ZM98.6323 92.7056C98.6393 92.8093 98.6714 92.9097 98.7259 92.9982C98.7544 93.0426 98.797 93.0762 98.8468 93.0937C98.8966 93.1112 98.9508 93.1116 99.0009 93.0947C99.0608 93.0597 99.108 93.0064 99.1354 92.9426C99.2287 92.7203 99.284 92.4839 99.2993 92.2434C99.3139 92.1088 99.3315 91.9713 99.3461 91.8367C99.3871 91.4944 99.4251 91.1521 99.4426 90.8069C99.4426 90.6636 99.428 90.3739 99.2144 90.412C99.0009 90.45 98.9219 90.7045 98.8605 90.8391C98.6894 91.2058 98.5986 91.6047 98.5942 92.0093C98.586 92.2421 98.5988 92.4751 98.6323 92.7056ZM91.6606 91.6641C91.4638 91.7712 91.2953 91.9236 91.1691 92.1088C91.1066 92.2021 91.0716 92.3111 91.0679 92.4233C91.0643 92.5355 91.0923 92.6465 91.1486 92.7436C91.1868 92.8074 91.2457 92.856 91.3154 92.8816C91.3852 92.9072 91.4616 92.908 91.5319 92.8841C91.6333 92.8212 91.7083 92.7234 91.7425 92.6091C91.804 92.4745 91.8625 92.3399 91.921 92.2053C91.9751 92.097 92.0145 91.9819 92.038 91.863C92.079 91.5705 91.8625 91.5325 91.6606 91.6641ZM89.721 99.8938C89.6133 99.7903 89.4946 99.6991 89.367 99.6217C89.1083 99.3745 88.8239 99.1558 88.5185 98.9693C88.434 98.925 88.3386 98.9058 88.2435 98.9137C88.1963 98.9182 88.1508 98.9341 88.111 98.9601C88.0712 98.9861 88.0384 99.0214 88.0154 99.0629C87.9979 99.1258 87.9955 99.1919 88.0082 99.2559C88.0209 99.3199 88.0484 99.38 88.0885 99.4315C88.3068 99.744 88.5758 100.018 88.8842 100.242C89.0222 100.369 89.1888 100.462 89.3699 100.511C89.4492 100.537 89.5349 100.534 89.6125 100.504C89.6901 100.473 89.755 100.417 89.7961 100.345C89.8373 100.273 89.8523 100.188 89.8386 100.106C89.8249 100.024 89.7834 99.9489 89.721 99.8938ZM95.0806 104.484C94.8009 104.806 94.6156 105.199 94.5452 105.619C94.5146 105.709 94.5064 105.805 94.5212 105.899C94.5359 105.993 94.5733 106.081 94.6301 106.157C94.7194 106.22 94.8291 106.248 94.9375 106.233C95.0458 106.219 95.1449 106.165 95.2152 106.081C95.3484 105.91 95.4531 105.718 95.5253 105.514C95.6174 105.349 95.6919 105.176 95.7476 104.996C95.8471 104.572 95.4756 104.074 95.0806 104.484ZM90.6922 108.945C90.5827 108.99 90.4832 109.055 90.3997 109.139C90.2359 109.291 90.0808 109.449 89.9316 109.613C89.8439 109.691 89.78 109.792 89.7473 109.905C89.7385 110.056 89.783 110.205 89.8731 110.326C89.9287 110.429 90.0106 110.54 90.1247 110.534C90.1671 110.529 90.2079 110.515 90.2446 110.493C90.3342 110.454 90.4163 110.399 90.4875 110.332C90.5465 110.264 90.5957 110.188 90.6337 110.107L91.0141 109.361C91.1633 109.124 91.0111 108.831 90.6922 108.945ZM82.1525 107.86C82.114 107.881 82.0819 107.912 82.0595 107.949C82.0371 107.987 82.0252 108.03 82.0252 108.074C82.0252 108.117 82.0371 108.16 82.0595 108.198C82.0819 108.236 82.114 108.266 82.1525 108.287C82.2244 108.319 82.3037 108.33 82.3816 108.32C82.4596 108.31 82.5331 108.278 82.5943 108.229C82.9687 107.954 82.3924 107.758 82.1525 107.86ZM102.994 110.399C102.878 110.486 102.793 110.609 102.751 110.748C102.663 110.976 102.607 111.215 102.585 111.459C102.574 111.511 102.577 111.565 102.592 111.616C102.608 111.667 102.635 111.713 102.672 111.751C102.73 111.778 102.796 111.784 102.857 111.768C102.919 111.751 102.973 111.713 103.009 111.66C103.1 111.541 103.17 111.406 103.214 111.263C103.272 111.102 103.647 110.002 102.994 110.399ZM103.059 100.64C102.967 100.521 102.86 100.416 102.74 100.327C102.561 100.186 102.374 100.055 102.19 99.9201C102.059 99.799 101.885 99.7348 101.707 99.7416C101.596 99.7811 101.502 99.8568 101.439 99.9567C101.376 100.056 101.349 100.174 101.362 100.292C101.371 100.492 101.412 100.689 101.482 100.877C101.555 101.107 101.666 101.323 101.809 101.517C101.948 101.715 102.158 101.851 102.395 101.898C103.097 102.003 103.433 101.152 103.059 100.64ZM108.746 109.709C108.588 109.631 108.423 109.566 108.254 109.516C108.166 109.465 108.062 109.447 107.962 109.466C107.93 109.485 107.902 109.511 107.88 109.541C107.858 109.572 107.843 109.606 107.835 109.643C107.828 109.68 107.828 109.718 107.836 109.754C107.845 109.791 107.861 109.825 107.883 109.855C107.982 109.972 108.113 110.057 108.26 110.098L108.606 110.236C109.074 110.414 109.103 109.914 108.746 109.709ZM112.994 106.661C112.979 106.609 112.947 106.564 112.903 106.532C112.879 106.522 112.852 106.517 112.826 106.519C112.8 106.52 112.774 106.528 112.751 106.54C112.727 106.553 112.707 106.57 112.692 106.592C112.676 106.613 112.665 106.638 112.66 106.664C112.645 106.772 112.668 106.883 112.725 106.977C112.78 107.091 113.017 107.667 113.234 107.538C113.45 107.41 113.049 106.783 112.994 106.661ZM137.695 68.593C137.492 68.5944 137.292 68.6404 137.109 68.7276C136.669 68.883 136.263 69.1213 135.913 69.4298C135.739 69.5845 135.599 69.7741 135.503 69.9863C135.406 70.1984 135.356 70.4284 135.354 70.6614C135.355 70.7488 135.376 70.8348 135.415 70.913C135.468 70.9867 135.537 71.0475 135.617 71.091C135.696 71.1346 135.784 71.1597 135.875 71.1646C136.233 71.211 136.597 71.1972 136.951 71.1237C137.142 71.097 137.328 71.0489 137.507 70.9803C138.183 70.7053 138.827 69.6609 138.329 68.9734C138.259 68.8663 138.165 68.7765 138.055 68.7106C137.946 68.6448 137.822 68.6046 137.695 68.593ZM121.194 58.0288C120.876 57.9296 120.54 57.8997 120.208 57.941C119.812 57.956 119.416 57.9931 119.024 58.0522C118.976 58.0555 118.931 58.074 118.895 58.1049C118.813 58.1897 118.895 58.3272 118.985 58.3974C119.299 58.647 119.672 58.8095 120.068 58.8684C120.332 58.9388 120.611 58.9388 120.875 58.8684C121.18 58.7631 121.703 58.219 121.194 58.0288ZM106.964 66.8816C107.061 67.0896 107.208 67.2704 107.391 67.4082C107.484 67.4739 107.596 67.5072 107.71 67.503C107.824 67.4988 107.933 67.4572 108.02 67.3848C108.116 67.2684 108.17 67.123 108.173 66.9723C108.189 66.4484 108.114 65.9256 107.95 65.4276C107.877 65.135 107.801 64.8425 107.725 64.5645C107.535 63.8419 107.345 63.1164 107.108 62.4084C107.008 62.1158 106.739 61.5453 106.332 61.7852C105.999 61.9842 105.981 62.5927 105.952 62.9321C105.896 63.8098 106.028 64.6894 106.338 65.5124C106.51 65.9849 106.719 66.4428 106.964 66.8816ZM101.224 82.6504C100.913 83.0245 100.693 83.4664 100.584 83.9406C100.532 84.1784 100.548 84.4258 100.629 84.6551C100.71 84.8845 100.854 85.0868 101.043 85.2395C101.17 85.3343 101.326 85.384 101.485 85.3809C101.644 85.3777 101.797 85.3218 101.921 85.222C102.075 85.0142 102.15 84.7577 102.131 84.4994C102.131 84.1805 102.158 83.8587 102.172 83.5369C102.193 83.2759 102.18 83.0134 102.134 82.7557C102.003 82.1443 101.543 82.2233 101.224 82.6504ZM94.6154 88.4635C94.3155 88.3412 94.0037 88.2501 93.6851 88.1915C92.9332 87.9954 92.2223 87.5742 91.4529 87.5391C91.2472 87.5219 91.0406 87.5581 90.8532 87.6444C90.76 87.6898 90.6797 87.7577 90.6194 87.842C90.5591 87.9263 90.5208 88.0243 90.5079 88.1271C90.5203 88.2689 90.567 88.4056 90.6439 88.5254C90.7209 88.6452 90.8258 88.7444 90.9497 88.8146C91.6363 89.2786 92.3972 89.622 93.1995 89.8298C93.5777 89.9782 93.9861 90.0334 94.3902 89.9907C95.2591 89.8327 95.4024 88.8614 94.6154 88.4635ZM109.094 93.5101C108.784 94.382 108.721 95.3223 108.91 96.228C108.98 96.6347 109.123 97.1057 109.495 97.252C109.931 97.4275 110.428 97.0735 110.61 96.6376C110.745 96.1863 110.806 95.716 110.791 95.245C110.849 94.8391 110.864 94.4282 110.835 94.0192C110.703 93.0859 109.556 92.3721 109.094 93.5101ZM103.752 105.999C103.57 106.174 103.427 106.384 103.331 106.617C103.123 107.05 102.93 107.494 102.746 107.942C102.631 108.175 102.585 108.436 102.614 108.694C102.716 109.007 102.923 109.275 103.199 109.455C103.392 109.61 103.644 109.776 103.869 109.674C103.952 109.629 104.025 109.567 104.083 109.493C104.231 109.342 104.353 109.168 104.445 108.978C104.513 108.79 104.553 108.592 104.562 108.393C104.624 107.79 104.682 107.184 104.744 106.582C104.805 105.979 104.29 105.543 103.752 105.999Z" fill="white"/>
<path d="M85.5961 110.56C85.5301 110.631 85.4848 110.718 85.4651 110.812C85.4455 110.906 85.4522 111.004 85.4845 111.095C85.5169 111.186 85.5737 111.266 85.6486 111.326C85.7235 111.387 85.8136 111.425 85.9091 111.438C86.0801 111.444 86.2496 111.404 86.3995 111.322C86.5495 111.239 86.6742 111.118 86.7604 110.97C87.3309 110.116 86.0115 110.16 85.5961 110.56ZM129.766 99.2296C129.6 99.4969 129.524 99.8109 129.55 100.125C129.55 100.658 129.626 101.187 129.775 101.699C129.842 101.927 129.957 102.187 130.191 102.243C130.425 102.299 130.705 102.053 130.802 101.792C130.894 101.478 130.927 101.15 130.899 100.824C130.89 100.429 130.773 97.8868 129.766 99.2296ZM122.18 79.4147C121.9 79.2492 121.599 79.1222 121.285 79.0373C120.811 78.894 120.334 78.7711 119.855 78.6511C119.483 78.5546 119.062 78.4668 118.734 78.6716C118.301 78.9408 118.281 79.5815 118.471 80.0554C118.648 80.4548 118.888 80.8232 119.182 81.1467C119.5 81.5604 119.885 81.9192 120.32 82.2086C120.761 82.4968 121.297 82.6017 121.815 82.5012C123.339 82.1648 123.348 80.1754 122.18 79.4147ZM140.851 93.2673C140.469 93.2351 140.084 93.2351 139.702 93.2673C139.471 93.2307 139.236 93.2808 139.04 93.4077C138.795 93.6301 138.915 94.0689 139.187 94.2562C139.479 94.4152 139.812 94.4844 140.143 94.4551H140.948C142.077 94.4609 141.744 93.4194 140.851 93.2673ZM134.597 55.7585C134.339 55.6868 134.068 55.6718 133.804 55.7147C133.487 55.7345 133.171 55.7736 132.859 55.8317C132.821 55.8364 132.786 55.8516 132.756 55.8756C132.692 55.9458 132.756 56.0569 132.835 56.1155C133.093 56.3048 133.395 56.4256 133.713 56.4665C133.928 56.5097 134.15 56.4997 134.36 56.4373C134.602 56.3495 135.006 55.9077 134.597 55.7585ZM123.409 63.207C123.493 63.3699 123.614 63.5104 123.763 63.6166C123.84 63.6675 123.931 63.6917 124.022 63.6853C124.114 63.679 124.201 63.6425 124.269 63.5815C124.342 63.4855 124.381 63.3683 124.38 63.248C124.38 62.828 124.307 62.4113 124.164 62.0163L123.962 61.3288C123.792 60.7437 123.623 60.1791 123.415 59.6174C123.327 59.3804 123.096 58.9328 122.777 59.1376C122.514 59.3043 122.514 59.7929 122.502 60.065C122.48 60.7662 122.607 61.4641 122.874 62.1129C123.024 62.4908 123.203 62.8566 123.409 63.207ZM111.528 66.2964C111.286 66.6032 111.121 66.9632 111.046 67.3467C111.01 67.5387 111.028 67.7368 111.099 67.9188C111.17 68.1008 111.29 68.2593 111.446 68.3765C111.551 68.452 111.678 68.4894 111.807 68.4825C111.936 68.4756 112.059 68.4248 112.154 68.3385C112.275 68.1688 112.329 67.9605 112.307 67.7534V66.981C112.319 66.7712 112.303 66.5606 112.26 66.355C112.14 65.8722 111.771 65.9454 111.528 66.2964ZM114.041 80.8073C113.798 80.7163 113.546 80.6507 113.29 80.6113C112.681 80.4738 112.119 80.152 111.484 80.1432C111.318 80.1354 111.153 80.1707 111.005 80.2456C110.931 80.2836 110.869 80.3394 110.823 80.4079C110.777 80.4764 110.749 80.5554 110.741 80.6376C110.755 80.7512 110.796 80.8598 110.86 80.9541C110.925 81.0484 111.012 81.1255 111.113 81.1788C111.675 81.5337 112.293 81.7909 112.941 81.9395C113.249 82.0483 113.578 82.0814 113.901 82.036C114.045 82.0225 114.181 81.9597 114.284 81.8582C114.388 81.7567 114.453 81.6227 114.47 81.4786C114.486 81.3346 114.453 81.1892 114.375 81.067C114.297 80.9448 114.179 80.8531 114.041 80.8073ZM125.773 84.4964C125.544 85.2023 125.516 85.9579 125.691 86.6789C125.755 87.0037 125.881 87.3723 126.194 87.4864C126.507 87.6005 126.937 87.3196 127.072 86.9656C127.169 86.6005 127.207 86.2222 127.183 85.8451C127.218 85.5184 127.218 85.1889 127.183 84.8621C127.051 84.1161 126.112 83.5749 125.773 84.4964ZM121.794 94.6394C121.655 94.7835 121.546 94.9548 121.475 95.1426C121.317 95.4966 121.183 95.8564 121.045 96.2192C120.961 96.4103 120.932 96.621 120.96 96.8277C121.052 97.0729 121.224 97.2794 121.449 97.4128C121.607 97.5357 121.815 97.6615 121.993 97.5738C122.058 97.5361 122.113 97.4852 122.157 97.4246C122.276 97.3007 122.375 97.1585 122.45 97.0033C122.498 96.8537 122.524 96.6981 122.529 96.541C122.561 96.0554 122.596 95.5697 122.628 95.0782C122.66 94.5867 122.215 94.2591 121.794 94.6394ZM124.746 103.691C124.505 104.101 124.408 104.58 124.468 105.052C124.53 105.519 124.644 105.978 124.808 106.421C124.868 106.627 124.958 106.824 125.074 107.006C125.133 107.098 125.212 107.176 125.306 107.234C125.399 107.292 125.503 107.329 125.612 107.342C125.788 107.329 125.956 107.263 126.093 107.153C126.231 107.043 126.333 106.894 126.384 106.725C126.572 106.114 126.555 105.458 126.335 104.858C126.188 104.364 125.36 102.74 124.746 103.691ZM107.368 98.7411C107.318 98.7988 107.285 98.8692 107.272 98.9447C107.259 99.0201 107.267 99.0976 107.295 99.1688C107.323 99.24 107.37 99.3021 107.431 99.3485C107.492 99.3948 107.564 99.4235 107.64 99.4315C107.778 99.4321 107.912 99.3954 108.03 99.3253C108.148 99.2552 108.245 99.1544 108.31 99.0336C108.734 98.3403 107.675 98.4105 107.368 98.7411ZM136.141 104.112C135.981 104.691 136.008 105.305 136.217 105.868C136.46 106.409 137.074 106.819 137.642 106.658C137.78 106.618 137.907 106.549 138.016 106.456C138.124 106.363 138.211 106.247 138.271 106.116C138.387 105.762 138.401 105.382 138.312 105.019C138.218 104.408 138.063 103.475 137.475 103.118C136.776 102.688 136.258 103.542 136.141 104.112ZM134.412 79.0812C134.185 78.9503 133.941 78.8518 133.687 78.7887C133.303 78.6833 132.917 78.5985 132.531 78.5136C132.386 78.4614 132.232 78.4383 132.078 78.4459C131.923 78.4534 131.772 78.4914 131.633 78.5575C131.291 78.7828 131.291 79.2977 131.454 79.6722C131.603 79.9872 131.8 80.2766 132.04 80.5294C132.306 80.8533 132.623 81.1319 132.979 81.3544C133.339 81.5763 133.77 81.6507 134.184 81.5621C135.41 81.2578 135.366 79.6605 134.412 79.0812ZM122.824 48.743C122.586 49.0113 122.414 49.3321 122.324 49.6792C122.28 49.8535 122.286 50.0365 122.34 50.2077C122.395 50.3788 122.497 50.5312 122.634 50.6476C122.727 50.7216 122.842 50.7619 122.961 50.7619C123.081 50.7619 123.196 50.7216 123.289 50.6476C123.408 50.4983 123.468 50.3112 123.459 50.121L123.512 49.413C123.537 49.2188 123.537 49.0221 123.512 48.8278C123.409 48.3861 123.07 48.4329 122.824 48.743Z" fill="white"/>
<path d="M124.336 62.2153C124.119 62.1176 123.891 62.0431 123.658 61.9929C123.105 61.8291 122.596 61.5044 122.025 61.4605C121.873 61.4443 121.719 61.4675 121.578 61.5278C121.508 61.5585 121.448 61.6062 121.402 61.6666C121.356 61.7269 121.326 61.7979 121.314 61.873C121.32 61.978 121.352 62.0799 121.406 62.1701C121.46 62.2603 121.535 62.336 121.624 62.3908C122.12 62.7483 122.673 63.0194 123.26 63.1924C123.537 63.3102 123.838 63.3594 124.137 63.3358C124.269 63.328 124.393 63.2762 124.492 63.1888C124.59 63.1014 124.656 62.9834 124.679 62.854C124.702 62.7245 124.68 62.5911 124.618 62.4752C124.556 62.3594 124.457 62.2678 124.336 62.2153ZM134.898 66.2584C134.649 66.8946 134.58 67.5869 134.699 68.2595C134.743 68.5521 134.836 68.9061 135.117 69.026C135.398 69.146 135.811 68.9148 135.954 68.5989C136.065 68.2689 136.12 67.9229 136.118 67.5749C136.171 67.2767 136.19 66.9735 136.176 66.6709C136.094 65.9805 135.26 65.4305 134.898 66.2584ZM130.676 75.354C130.539 75.4782 130.429 75.6296 130.354 75.7987C130.19 76.1147 130.038 76.4365 129.901 76.7642C129.812 76.9342 129.772 77.1257 129.787 77.3171C129.854 77.554 130.001 77.7606 130.202 77.9022C130.343 78.0221 130.524 78.1509 130.694 78.0777C130.756 78.0477 130.812 78.0037 130.855 77.949C130.972 77.8427 131.071 77.717 131.147 77.5775C131.2 77.4437 131.233 77.3026 131.244 77.1591L131.419 75.825C131.466 75.3657 131.086 75.0293 130.676 75.354ZM132.882 83.8353C132.638 84.1987 132.521 84.633 132.551 85.0699C132.582 85.5026 132.662 85.9305 132.788 86.3454C132.828 86.5436 132.899 86.7342 132.999 86.91C133.048 86.9984 133.116 87.0747 133.198 87.1335C133.28 87.1922 133.374 87.2318 133.473 87.2494C133.637 87.2473 133.797 87.1949 133.93 87.0991C134.064 87.0034 134.164 86.8689 134.219 86.714C134.426 86.1634 134.446 85.5602 134.278 84.9967C134.169 84.5491 133.499 82.9956 132.882 83.8353ZM117.18 78.3176C117.131 78.3682 117.097 78.4312 117.082 78.4998C117.066 78.5684 117.069 78.64 117.091 78.7069C117.113 78.7738 117.153 78.8333 117.206 78.8792C117.26 78.9251 117.325 78.9555 117.394 78.9671C117.52 78.9748 117.646 78.9485 117.758 78.8908C117.87 78.8332 117.965 78.7463 118.032 78.6394C118.485 78.028 117.493 78.0309 117.18 78.3176ZM125.565 94.066L125.319 93.9958C125.205 93.9419 125.08 93.9177 124.954 93.9254C124.828 93.9331 124.706 93.9724 124.6 94.0397C124.527 94.1255 124.482 94.2311 124.471 94.3428C124.46 94.4544 124.482 94.567 124.535 94.6657C124.564 94.7396 124.609 94.806 124.668 94.8597C124.726 94.9135 124.796 94.9532 124.872 94.9759C125.074 95.0139 125.261 94.8676 125.457 94.8179C125.653 94.7681 125.975 94.7886 126.042 94.5253C126.109 94.262 125.773 94.1245 125.565 94.066ZM133.359 103.606C133.267 103.642 133.181 103.691 133.104 103.753C133.036 103.812 132.983 103.887 132.948 103.971C132.914 104.055 132.899 104.146 132.906 104.237C132.913 104.327 132.941 104.415 132.987 104.493C133.034 104.571 133.098 104.637 133.175 104.686C133.23 104.724 133.295 104.747 133.362 104.753C133.561 104.753 133.716 104.601 133.845 104.461C133.973 104.32 134.277 103.963 134.169 103.712C134.038 103.399 133.581 103.513 133.359 103.606ZM136.916 57.1365C136.629 57.4037 136.409 57.7343 136.273 58.1019C136.208 58.2871 136.196 58.4865 136.238 58.6781C136.28 58.8696 136.374 59.0459 136.51 59.1873C136.603 59.2763 136.724 59.3318 136.853 59.345C136.981 59.3583 137.111 59.3285 137.221 59.2604C137.367 59.1111 137.453 58.9133 137.463 58.7046C137.507 58.4501 137.548 58.1955 137.592 57.941C137.636 57.7345 137.653 57.523 137.642 57.312C137.578 56.8088 137.209 56.8264 136.916 57.1365ZM139.348 77.2586C139.121 77.1293 138.882 77.0244 138.634 76.9455C138.049 76.7115 137.531 76.3048 136.913 76.1995C136.75 76.1632 136.581 76.1713 136.422 76.2229C136.343 76.2494 136.272 76.2955 136.216 76.3569C136.159 76.4183 136.12 76.493 136.1 76.574C136.098 76.6879 136.124 76.8006 136.174 76.9025C136.225 77.0044 136.3 77.0925 136.393 77.1591C136.896 77.5979 137.47 77.949 138.09 78.1977C138.377 78.3542 138.698 78.4395 139.026 78.4464C139.167 78.4486 139.305 78.4037 139.418 78.3188C139.53 78.2339 139.612 78.1139 139.648 77.9776C139.685 77.8414 139.676 77.6967 139.621 77.5665C139.567 77.4362 139.47 77.3279 139.348 77.2586ZM127.683 88.6829C127.625 88.7327 127.581 88.7975 127.556 88.8705C127.532 88.9435 127.528 89.0217 127.545 89.0968C127.561 89.1718 127.599 89.2409 127.652 89.2963C127.705 89.3518 127.773 89.3916 127.847 89.4114C127.983 89.4336 128.123 89.418 128.251 89.3665C128.379 89.3149 128.49 89.2292 128.573 89.1188C129.117 88.5016 128.052 88.405 127.683 88.6829ZM135.161 106.672L134.901 106.57C134.643 106.467 134.333 106.374 134.114 106.541C134.025 106.626 133.965 106.736 133.941 106.856C133.917 106.976 133.93 107.101 133.979 107.214C134.001 107.297 134.043 107.375 134.1 107.44C134.158 107.505 134.229 107.556 134.31 107.588C134.526 107.652 134.743 107.512 134.965 107.477C135.187 107.442 135.533 107.5 135.629 107.231C135.726 106.962 135.369 106.757 135.161 106.672ZM138.013 94.2532C137.935 94.1478 137.847 94.0499 137.75 93.9607C137.563 93.7012 137.35 93.4611 137.115 93.2439C137.048 93.1926 136.968 93.1603 136.884 93.1503C136.842 93.1455 136.799 93.1516 136.759 93.168C136.72 93.1844 136.685 93.2105 136.659 93.2439C136.632 93.2952 136.617 93.3525 136.617 93.4107C136.617 93.4688 136.632 93.5261 136.659 93.5774C136.796 93.8899 136.985 94.1768 137.218 94.4258C137.317 94.5602 137.448 94.6685 137.598 94.7418C137.664 94.7886 137.744 94.8091 137.825 94.7992C137.905 94.7893 137.978 94.7498 138.03 94.6883C138.082 94.6269 138.11 94.5481 138.107 94.4675C138.103 94.387 138.07 94.3105 138.013 94.2532ZM137.344 102.351C137.238 102.37 137.138 102.412 137.051 102.474C136.881 102.579 136.72 102.691 136.559 102.808C136.469 102.865 136.396 102.946 136.349 103.042C136.316 103.173 136.329 103.311 136.387 103.434C136.419 103.53 136.472 103.644 136.571 103.659C136.61 103.661 136.649 103.655 136.685 103.641C136.77 103.622 136.852 103.589 136.925 103.542C136.989 103.493 137.045 103.434 137.092 103.369L137.551 102.784C137.718 102.579 137.63 102.31 137.344 102.351ZM136.004 107.044C135.784 107.149 135.605 107.324 135.495 107.541C135.388 107.759 135.305 107.988 135.246 108.223C135.21 108.329 135.191 108.439 135.187 108.551C135.187 108.606 135.199 108.661 135.222 108.712C135.245 108.762 135.279 108.807 135.322 108.843C135.401 108.888 135.492 108.908 135.582 108.9C135.673 108.891 135.759 108.855 135.828 108.796C136.084 108.591 136.265 108.307 136.343 107.989C136.422 107.743 136.536 106.816 136.004 107.044ZM130.032 99.9552C129.995 99.9656 129.961 99.986 129.934 100.014C129.907 100.043 129.888 100.078 129.879 100.116C129.87 100.154 129.872 100.193 129.884 100.231C129.896 100.268 129.918 100.301 129.948 100.327C130.006 100.366 130.074 100.39 130.145 100.394C130.215 100.398 130.286 100.383 130.348 100.35C130.732 100.18 130.261 99.9054 130.032 99.9552ZM129.602 109.882L129.503 109.779C129.406 109.677 129.284 109.566 129.146 109.595C129.085 109.616 129.033 109.656 128.996 109.708C128.958 109.761 128.938 109.823 128.938 109.887C128.932 109.931 128.935 109.975 128.947 110.017C128.96 110.059 128.982 110.098 129.011 110.13C129.096 110.206 129.228 110.189 129.339 110.221C129.45 110.253 129.594 110.353 129.696 110.25C129.798 110.148 129.681 109.969 129.602 109.882ZM136.624 87.1353C136.484 87.1924 136.357 87.2781 136.252 87.3869C135.992 87.6121 135.775 87.884 135.614 88.1885C135.536 88.3423 135.491 88.5109 135.482 88.6832C135.473 88.8555 135.5 89.0279 135.562 89.1891C135.585 89.2493 135.622 89.3033 135.67 89.347C135.726 89.3834 135.79 89.4068 135.856 89.4154C135.922 89.424 135.99 89.4176 136.053 89.3968C136.313 89.3331 136.56 89.2263 136.785 89.0808C136.908 89.0107 137.024 88.9274 137.13 88.8321C137.525 88.4606 137.689 87.5712 137.162 87.2289C137.085 87.174 136.997 87.1371 136.904 87.1209C136.81 87.1047 136.715 87.1096 136.624 87.1353ZM120.1 82.5012C119.853 82.5159 119.612 82.5848 119.395 82.7031C119.126 82.819 118.863 82.9499 118.608 83.0951C118.576 83.1103 118.55 83.1348 118.532 83.1653C118.497 83.2472 118.593 83.3204 118.675 83.3496C118.96 83.4368 119.262 83.4489 119.553 83.3847C119.754 83.3574 119.945 83.28 120.109 83.1595C120.284 83.0073 120.501 82.5012 120.1 82.5012ZM112.649 92.4043C112.77 92.522 112.919 92.6075 113.082 92.6529C113.164 92.674 113.25 92.6674 113.328 92.634C113.406 92.6007 113.471 92.5425 113.512 92.4686C113.548 92.3635 113.548 92.249 113.512 92.1439C113.382 91.7789 113.191 91.4386 112.947 91.1375L112.558 90.6021C112.233 90.1545 111.911 89.7069 111.557 89.2827C111.408 89.1042 111.072 88.7853 110.855 89.0574C110.68 89.2856 110.829 89.7098 110.899 89.9526C111.096 90.5727 111.422 91.144 111.856 91.629C112.098 91.909 112.363 92.1683 112.649 92.4043ZM103.272 98.7381C103.156 99.0794 103.123 99.4435 103.176 99.8001C103.204 99.9778 103.281 100.144 103.398 100.281C103.515 100.417 103.668 100.518 103.84 100.572C103.954 100.606 104.076 100.6 104.186 100.554C104.296 100.509 104.388 100.428 104.445 100.324C104.498 100.139 104.482 99.9412 104.399 99.7679L104.17 99.0951C104.117 98.9088 104.038 98.7307 103.936 98.5655C103.661 98.1794 103.363 98.3578 103.272 98.7381ZM109.896 110.587C109.656 110.581 109.417 110.602 109.182 110.648C108.597 110.713 108.012 110.61 107.468 110.794C107.32 110.836 107.186 110.917 107.081 111.028C107.029 111.084 106.991 111.151 106.972 111.225C106.953 111.299 106.954 111.376 106.973 111.45C107.019 111.544 107.087 111.626 107.172 111.689C107.257 111.752 107.355 111.793 107.459 111.81C108.058 111.944 108.674 111.977 109.284 111.909C109.589 111.911 109.89 111.84 110.162 111.701C110.284 111.644 110.382 111.547 110.441 111.426C110.499 111.304 110.514 111.167 110.483 111.036C110.451 110.905 110.376 110.789 110.269 110.707C110.162 110.625 110.03 110.583 109.896 110.587ZM121.232 110.206C121.251 110.89 121.459 111.555 121.832 112.128C121.987 112.392 122.21 112.673 122.517 112.676C122.824 112.678 123.102 112.304 123.122 111.956C123.094 111.607 123.01 111.265 122.874 110.944C122.807 110.649 122.709 110.363 122.581 110.089C122.227 109.481 121.247 109.297 121.232 110.206ZM137.019 108.629C136.976 108.859 137.008 109.096 137.109 109.305C137.255 109.672 137.452 110.017 137.695 110.329C137.738 110.407 137.801 110.472 137.876 110.518C137.952 110.564 138.039 110.59 138.128 110.593C138.329 110.566 138.42 110.323 138.42 110.119C138.401 109.878 138.337 109.642 138.23 109.425C138.116 109.156 137.349 107.436 137.019 108.629ZM126.493 96.9857C126.255 96.9467 126.013 96.9398 125.773 96.9652C125.41 96.9916 125.047 97.0354 124.685 97.0793C124.398 97.0786 124.122 97.1911 123.918 97.3924C123.69 97.6849 123.848 98.1413 124.105 98.4192C124.334 98.6466 124.598 98.8362 124.886 98.981C125.218 99.1813 125.579 99.3266 125.957 99.411C126.338 99.4943 126.737 99.4261 127.069 99.2209C128.026 98.5743 127.502 97.1993 126.493 96.9857ZM130.752 107.386C130.623 107.491 130.523 107.627 130.46 107.781C130.431 107.858 130.429 107.943 130.453 108.022C130.477 108.101 130.527 108.169 130.594 108.217C130.694 108.262 130.806 108.272 130.913 108.246C131.282 108.157 131.634 108.006 131.952 107.799L132.51 107.48C132.981 107.211 133.45 106.941 133.9 106.64C134.09 106.514 134.435 106.219 134.193 105.982C133.991 105.786 133.561 105.888 133.315 105.932C132.69 106.058 132.1 106.316 131.583 106.69C131.287 106.899 131.01 107.132 130.752 107.386Z" fill="white"/>
<path d="M125.559 97.5913C125.239 97.4443 124.89 97.3742 124.538 97.3865C124.362 97.3949 124.192 97.4522 124.047 97.552C123.902 97.6517 123.787 97.7899 123.716 97.9511C123.671 98.0593 123.665 98.1795 123.698 98.2918C123.731 98.4042 123.801 98.5018 123.897 98.5684C124.073 98.6345 124.266 98.6345 124.441 98.5684L125.12 98.4163C125.308 98.3818 125.49 98.3228 125.661 98.2408C126.062 98.0389 125.919 97.7347 125.559 97.5913ZM113.336 102.825C113.365 102.592 113.371 102.357 113.354 102.123C113.354 101.558 113.509 100.991 113.386 100.438C113.36 100.291 113.295 100.154 113.198 100.04C113.15 99.9826 113.088 99.9386 113.018 99.9125C112.948 99.8863 112.872 99.8788 112.798 99.8908C112.596 99.9318 112.476 100.137 112.4 100.327C112.205 100.891 112.107 101.485 112.107 102.082C112.075 102.38 112.114 102.68 112.221 102.96C112.271 103.076 112.357 103.173 112.467 103.236C112.577 103.299 112.704 103.325 112.829 103.31C112.955 103.294 113.072 103.239 113.163 103.152C113.254 103.064 113.315 102.95 113.336 102.825ZM102.804 112.518C102.647 112.424 102.473 112.364 102.292 112.342C101.95 112.278 101.604 112.225 101.259 112.19C101.074 112.153 100.882 112.17 100.706 112.24C100.508 112.371 100.36 112.566 100.288 112.793C100.215 112.956 100.145 113.167 100.262 113.305C100.308 113.354 100.365 113.393 100.428 113.419C100.561 113.494 100.705 113.548 100.856 113.577C100.997 113.587 101.139 113.577 101.277 113.547L102.579 113.334C103.018 113.261 103.225 112.807 102.804 112.518ZM96.1892 100.689C96.1279 100.658 96.0593 100.644 95.9906 100.649C95.922 100.654 95.856 100.677 95.7995 100.717C95.7431 100.756 95.6984 100.81 95.6701 100.872C95.6419 100.935 95.6312 101.004 95.6392 101.073C95.6678 101.193 95.7282 101.304 95.8142 101.393C95.9002 101.482 96.0085 101.546 96.1278 101.579C96.8358 101.81 96.5432 100.9 96.1892 100.689ZM83.7848 113.032V112.778C83.7848 112.532 83.7555 112.243 83.542 112.117C83.4411 112.072 83.3291 112.06 83.2209 112.081C83.1126 112.101 83.0134 112.155 82.9364 112.234C82.874 112.281 82.8237 112.342 82.7896 112.412C82.7555 112.482 82.7386 112.56 82.7404 112.638C82.7579 112.836 82.9481 112.971 83.0534 113.144C83.1587 113.316 83.2289 113.623 83.4834 113.612C83.738 113.6 83.7877 113.243 83.7848 113.032Z" fill="white"/>
</g>
</g>
<path d="M77.063 83.741L48.9209 110.484L49.7774 111.386L77.9195 84.6423L77.063 83.741Z" fill="#5E3041"/>
<path d="M109.774 83.7466L108.918 84.6483L137.069 111.382L137.926 110.48L109.774 83.7466Z" fill="#5E3041"/>
<path d="M48.443 56.5336L47.665 57.5035L56.171 64.3254L56.9489 63.3554L48.443 56.5336Z" fill="#5E3041"/>
<path d="M138.259 56.6337L129.752 63.4541L130.53 64.4242L139.037 57.6038L138.259 56.6337Z" fill="#5E3041"/>
<path d="M118.664 21.5117H68.1484V22.7551H118.664V21.5117Z" fill="#5E3041"/>
<path d="M100.897 35.3087H68.1484V36.5521H100.897V35.3087Z" fill="#5E3041"/>
<path d="M118.664 49.1086H68.1484V50.352H118.664V49.1086Z" fill="#5E3041"/>
<path d="M118.664 62.9086H68.1484V64.1519H118.664V62.9086Z" fill="#5E3041"/>
<path d="M60.5393 78.9905C62.8418 77.5277 66.7796 75.5734 69.3161 77.5452C74.3422 81.4304 66.9756 88.3933 64.1904 91.2194C62.3093 93.1181 61.7827 93.2673 51.1307 102.044L49.7644 103.17C49.741 103.799 49.6913 104.458 49.6065 105.139C49.2559 107.891 48.4188 110.559 47.1344 113.018H63.7779C61.6292 117.685 58.4085 121.779 54.3781 124.966C51.5429 127.191 48.3547 128.926 44.946 130.097C40.1042 135.703 36.1517 139.655 34.335 140.922C33.3022 141.636 31.9711 142.279 30.7307 141.773C29.341 141.206 28.1942 140.188 27.0971 139.19C20.9944 133.631 15.2632 127.575 10.904 120.569C10.1639 119.378 9.57291 118.126 9.71041 116.689C9.80696 115.709 10.5179 114.949 11.2288 114.334C12.0684 113.612 12.8876 112.872 13.7302 112.134C15.6103 110.508 17.4788 108.868 19.3355 107.216C20.6052 106.083 21.8613 104.953 23.1037 103.826C23.2178 103.138 23.3962 102.105 23.6361 100.856C24.7528 95.0851 26.3238 89.4114 28.3346 83.8879C30.52 77.949 31.8746 75.0117 34.7358 72.8058C36.2424 71.6356 38.2465 70.5765 40.3909 69.4531C43.1175 68.0167 45.4697 66.9898 47.1431 66.3081V88.7473C51.4285 85.2548 55.9005 81.9977 60.5393 78.9905ZM129.287 34.7353C126.052 34.0127 123.398 33.4364 121.388 32.9566C120.527 32.7371 119.644 32.6183 118.755 32.6026C117.515 32.6026 116.274 32.5353 115.166 33.1877C114.588 33.5532 114.105 34.0501 113.756 34.6379C113.408 35.2256 113.203 35.8876 113.159 36.5697C113.143 37.743 113.513 38.8889 114.212 39.8317C115.66 41.9293 117.687 43.0498 119.817 44.3254C121.161 45.1394 122.561 45.857 124.007 46.4727C125.713 47.185 127.48 47.7402 129.287 48.1315V56.2822H139.691V69.4911L151.887 70.7667C152.227 70.9393 152.841 71.2582 153.59 71.6853C157.101 73.6981 163.356 77.7705 163.356 77.7705C164.017 78.1304 164.728 78.4931 165.48 78.4434C166.284 78.3907 166.978 77.8817 167.604 77.3756C170.528 75.0042 173.106 72.2351 175.263 69.1488C178.37 64.6552 180.216 58.8976 181.161 53.5731C181.319 52.9394 181.33 52.2779 181.193 51.6393C180.9 50.6124 179.95 50.5071 179.104 50.1531C177.934 49.6616 176.819 48.9653 175.696 48.3802L169.099 44.9602C166.044 43.3775 162.501 41.9586 159.842 39.7527C158.613 38.7317 157.686 37.4122 156.761 36.0928C154.357 32.7011 151.848 29.3854 149.237 26.1458C147.666 24.2003 146.036 22.2636 143.997 20.8213C142.008 19.4141 140.106 18.8992 136.525 17.8021C134.141 17.07 131.721 16.4578 129.276 15.9678L129.287 34.7353Z" fill="#2A46B2"/>
<g style="mix-blend-mode:overlay">
<path d="M138.38 52.5754C135.141 51.9464 132.189 50.1179 129.819 48.6493L130.314 47.8535C132.619 49.2812 135.486 51.0717 138.558 51.6568L138.38 52.5754Z" fill="white"/>
<path d="M130.123 34.3936L129.929 35.3093L140.085 37.468L140.279 36.5523L130.123 34.3936Z" fill="white"/>
<path d="M151.837 64.1666C145.91 61.8178 140.931 57.5641 137.686 52.0752L138.494 51.5983C141.631 56.9098 146.446 61.0267 152.18 63.3006L151.837 64.1666ZM152.478 70.7989L152.148 69.9212C153.056 69.5786 153.889 69.0618 154.599 68.3999L155.24 69.0845C154.44 69.8302 153.502 70.4126 152.478 70.7989ZM36.9209 122.848L36.5113 121.996C40.3142 120.147 43.6383 117.443 46.2242 114.097L46.9673 114.682C44.2915 118.141 40.8534 120.935 36.9209 122.848ZM22.5739 109.817L21.6377 109.794C21.6763 108.188 21.8822 106.591 22.2521 105.028L23.1648 105.245C22.8099 106.744 22.6119 108.277 22.5739 109.817ZM46.2067 88.2762C45.6294 85.7765 44.6576 83.3846 43.3279 81.1905L44.1295 80.7019C45.5111 82.9803 46.5213 85.4639 47.1224 88.0598L46.2067 88.2762ZM66.7237 86.2108C66.6311 86.2118 66.5386 86.201 66.4487 86.1786C66.0248 86.0437 65.6463 85.7947 65.3545 85.4589C64.2438 84.4261 63.2329 83.2909 62.3354 82.0682C61.9609 81.524 61.1827 80.3947 62.4143 79.4352C63.646 78.4756 65.0825 77.5599 66.7354 77.6535C67.6982 77.7332 68.6002 78.1571 69.276 78.8475C69.9519 79.5378 70.3565 80.4485 70.4158 81.4128L69.6347 81.4392C69.5763 80.6751 69.2503 79.9561 68.7142 79.4087C68.178 78.8613 67.4659 78.5205 66.7032 78.4463C65.3048 78.3615 64 79.2216 62.9 80.0671C62.3939 80.4562 62.4143 80.7897 62.9878 81.6264C63.858 82.8071 64.8375 83.9031 65.9133 84.9001C66.1064 85.1345 66.3576 85.314 66.6418 85.4209C66.7545 85.4436 66.8716 85.4227 66.9695 85.3624C66.9884 85.3523 67.0051 85.3386 67.0187 85.3221C67.0323 85.3055 67.0424 85.2864 67.0485 85.2658L67.8179 85.3975C67.7947 85.5234 67.7458 85.6431 67.6743 85.7493C67.6029 85.8555 67.5103 85.9459 67.4024 86.0148C67.2003 86.1453 66.9643 86.2135 66.7237 86.2108Z" fill="white"/>
<path d="M68.6457 84.6076L68.0605 84.0897C68.3903 83.718 68.6625 83.2989 68.868 82.8464L69.5789 83.174C69.3396 83.6949 69.0251 84.1779 68.6457 84.6076ZM119.463 41.0663C119.123 41.0649 118.787 41.0045 118.468 40.8878C117.525 40.527 116.706 39.9012 116.11 39.0857L116.748 38.6351C117.253 39.3194 117.942 39.846 118.734 40.1535C119.012 40.2739 119.317 40.3187 119.617 40.2832C119.918 40.2478 120.204 40.1334 120.446 39.9516C120.782 39.6591 120.934 39.1734 121.095 38.5825L121.862 35.7798C122.075 34.9986 122.067 34.7236 121.604 34.4047C121.287 34.2127 120.941 34.0707 120.58 33.9835C119.648 33.7052 118.661 33.661 117.708 33.8547C116.707 34.0712 115.56 34.826 115.408 35.9787L114.633 35.8763C114.835 34.3491 116.283 33.3632 117.541 33.0912C118.624 32.867 119.746 32.9162 120.806 33.2345C121.245 33.3448 121.664 33.5225 122.049 33.7611C123.038 34.4428 122.792 35.3351 122.614 35.9875L121.85 38.7872C121.695 39.3519 121.502 40.0511 120.972 40.5426C120.55 40.896 120.013 41.0823 119.463 41.0663Z" fill="white"/>
</g>
<g style="mix-blend-mode:overlay" opacity="0.7">
<path d="M138.38 52.5754C135.141 51.9464 132.189 50.1179 129.819 48.6493L130.314 47.8535C132.619 49.2812 135.486 51.0717 138.558 51.6568L138.38 52.5754Z" fill="white"/>
<path d="M130.123 34.3936L129.929 35.3093L140.085 37.468L140.279 36.5523L130.123 34.3936Z" fill="white"/>
<path d="M151.837 64.1666C145.91 61.8178 140.931 57.5641 137.686 52.0752L138.494 51.5983C141.631 56.9098 146.446 61.0267 152.18 63.3006L151.837 64.1666ZM152.478 70.7989L152.148 69.9212C153.056 69.5786 153.889 69.0618 154.599 68.3999L155.24 69.0845C154.44 69.8302 153.502 70.4126 152.478 70.7989ZM36.9209 122.848L36.5113 121.996C40.3142 120.147 43.6383 117.443 46.2242 114.097L46.9673 114.682C44.2915 118.141 40.8534 120.935 36.9209 122.848ZM22.5739 109.817L21.6377 109.794C21.6763 108.188 21.8822 106.591 22.2521 105.028L23.1648 105.245C22.8099 106.744 22.6119 108.277 22.5739 109.817ZM46.2067 88.2762C45.6294 85.7765 44.6576 83.3846 43.3279 81.1905L44.1295 80.7019C45.5111 82.9803 46.5213 85.4639 47.1224 88.0598L46.2067 88.2762ZM66.7237 86.2108C66.6311 86.2118 66.5386 86.201 66.4487 86.1786C66.0248 86.0437 65.6463 85.7947 65.3545 85.4589C64.2438 84.4261 63.2329 83.2909 62.3354 82.0682C61.9609 81.524 61.1827 80.3947 62.4143 79.4352C63.646 78.4756 65.0825 77.5599 66.7354 77.6535C67.6982 77.7332 68.6002 78.1571 69.276 78.8475C69.9519 79.5378 70.3565 80.4485 70.4158 81.4128L69.6347 81.4392C69.5763 80.6751 69.2503 79.9561 68.7142 79.4087C68.178 78.8613 67.4659 78.5205 66.7032 78.4463C65.3048 78.3615 64 79.2216 62.9 80.0671C62.3939 80.4562 62.4143 80.7897 62.9878 81.6264C63.858 82.8071 64.8375 83.9031 65.9133 84.9001C66.1064 85.1345 66.3576 85.314 66.6418 85.4209C66.7545 85.4436 66.8716 85.4227 66.9695 85.3624C66.9884 85.3523 67.0051 85.3386 67.0187 85.3221C67.0323 85.3055 67.0424 85.2864 67.0485 85.2658L67.8179 85.3975C67.7947 85.5234 67.7458 85.6431 67.6743 85.7493C67.6029 85.8555 67.5103 85.9459 67.4024 86.0148C67.2003 86.1453 66.9643 86.2135 66.7237 86.2108Z" fill="white"/>
<path d="M68.6457 84.6076L68.0605 84.0897C68.3903 83.718 68.6625 83.2989 68.868 82.8464L69.5789 83.174C69.3396 83.6949 69.0251 84.1779 68.6457 84.6076ZM119.463 41.0663C119.123 41.0649 118.787 41.0045 118.468 40.8878C117.525 40.527 116.706 39.9012 116.11 39.0857L116.748 38.6351C117.253 39.3194 117.942 39.846 118.734 40.1535C119.012 40.2739 119.317 40.3187 119.617 40.2832C119.918 40.2478 120.204 40.1334 120.446 39.9516C120.782 39.6591 120.934 39.1734 121.095 38.5825L121.862 35.7798C122.075 34.9986 122.067 34.7236 121.604 34.4047C121.287 34.2127 120.941 34.0707 120.58 33.9835C119.648 33.7052 118.661 33.661 117.708 33.8547C116.707 34.0712 115.56 34.826 115.408 35.9787L114.633 35.8763C114.835 34.3491 116.283 33.3632 117.541 33.0912C118.624 32.867 119.746 32.9162 120.806 33.2345C121.245 33.3448 121.664 33.5225 122.049 33.7611C123.038 34.4428 122.792 35.3351 122.614 35.9875L121.85 38.7872C121.695 39.3519 121.502 40.0511 120.972 40.5426C120.55 40.896 120.013 41.0823 119.463 41.0663Z" fill="white"/>
</g>
</svg>
