<svg width="124" height="200" viewBox="0 0 124 200" fill="none" xmlns="http://www.w3.org/2000/svg">
<mask id="mask0_145_778" style="mask-type:luminance" maskUnits="userSpaceOnUse" x="12" y="62" width="89" height="125">
<path d="M38.6122 125.41C37.9422 127.342 37.0086 129.172 35.8379 130.849C30.5936 138.801 22.8989 144.756 15.5046 150.749C11.2553 154.234 12.7302 158.42 15.4031 162.713C18.6601 167.881 22.935 172.333 27.9676 175.796C33.1494 179.366 38.2649 182.874 44.1804 185.192C47.181 186.363 50.1894 187.65 52.9794 185.309C54.2397 184.252 55.1333 182.831 55.9995 181.434C58.4552 177.473 60.864 173.485 63.226 169.471C65.298 165.959 67.0383 161.807 69.9062 158.881C76.723 151.92 82.5253 146.742 86.6263 143.253C92.054 138.63 95.4214 136.183 97.6534 130.993C98.3089 129.476 98.8435 126.069 99.9126 119.256C99.9126 119.256 101.384 109.891 99.3468 105.283C98.9093 104.302 98.2635 103.427 97.4544 102.72C96.9493 102.316 96.3828 101.996 95.7765 101.771C95.9312 99.0956 95.6291 96.413 94.883 93.8387C94.1533 91.3297 93.4899 89.0666 91.3712 87.3575C90.0795 86.3288 88.5325 85.6706 86.8956 85.4534C86.361 83.0029 86.0488 80.6539 84.2734 78.7458C82.0493 76.3539 78.5882 75.6243 75.3417 75.2341C73.2581 70.5205 68.7083 66.5014 63.6865 65.1982C61.3726 64.5973 58.9377 65.2996 56.6902 66.1151C55.8786 66.4117 55.0162 66.7668 54.5519 67.5003C53.8503 66.3621 53.0401 65.2945 52.1326 64.3124C51.4771 63.614 50.7357 62.9233 49.7914 62.7165C48.4062 62.4121 47.06 63.2589 45.8894 64.09C41.7465 67.0682 37.8334 70.3538 34.1834 73.9191C33.6849 74.361 33.2572 74.8769 32.9153 75.4487C32.5607 76.1777 32.3804 76.9792 32.3885 77.7899C32.2363 82.4137 34.8312 86.8854 34.2498 91.4741C34.0547 93.0349 33.4928 94.5489 33.5357 96.1175C33.5903 98.0685 34.5814 99.8712 35.4516 101.631C36.0603 102.864 36.6222 104.105 37.149 105.361C38.5833 108.936 39.3911 112.731 39.537 116.579C39.6501 119.092 39.7594 121.952 38.6122 125.41Z" fill="white"/>
</mask>
<g mask="url(#mask0_145_778)">
<path d="M38.6142 125.41C37.9442 127.342 37.0106 129.172 35.8398 130.849C30.5956 138.801 22.9008 144.756 15.5065 150.749C11.2572 154.234 12.7322 158.42 15.4051 162.713C18.6621 167.881 22.937 172.333 27.9695 175.796C33.1514 179.366 38.2669 182.874 44.1823 185.192C47.183 186.363 50.1914 187.65 52.9813 185.309C54.2417 184.252 55.1352 182.831 56.0015 181.434C58.4571 177.473 60.866 173.485 63.228 169.471C65.2999 165.959 67.0402 161.807 69.9082 158.881C76.725 151.92 82.5273 146.742 86.6283 143.253C92.056 138.63 95.4234 136.183 97.6553 130.993C98.3109 129.476 98.8454 126.069 99.9146 119.256C99.9146 119.256 101.386 109.891 99.3488 105.283C98.9112 104.302 98.2655 103.427 97.4563 102.72C96.9512 102.316 96.3848 101.996 95.7785 101.771C95.9332 99.0956 95.631 96.413 94.8849 93.8387C94.1552 91.3297 93.4919 89.0666 91.3731 87.3575C90.0815 86.3288 88.5344 85.6706 86.8975 85.4534C86.3629 83.0029 86.0508 80.6539 84.2754 78.7458C82.0512 76.3539 78.5902 75.6243 75.3437 75.2341C73.26 70.5205 68.7103 66.5014 63.6884 65.1982C61.3745 64.5973 58.9397 65.2996 56.6921 66.1151C55.8805 66.4117 55.0182 66.7668 54.5538 67.5003C53.8522 66.3621 53.042 65.2945 52.1346 64.3124C51.4791 63.614 50.7377 62.9233 49.7934 62.7165C48.4082 62.4121 47.062 63.2589 45.8914 64.09C41.7484 67.0682 37.8354 70.3538 34.1854 73.9191C33.6869 74.361 33.2592 74.8769 32.9172 75.4487C32.5627 76.1777 32.3823 76.9792 32.3905 77.7899C32.2383 82.4137 34.8331 86.8854 34.2517 91.4741C34.0566 93.0349 33.4947 94.5489 33.5377 96.1175C33.5923 98.0685 34.5834 99.8712 35.4535 101.631C36.0623 102.864 36.6241 104.105 37.1509 105.361C38.5853 108.936 39.3931 112.731 39.5389 116.579C39.6521 119.092 39.7613 121.952 38.6142 125.41Z" fill="#FEC949"/>
<path d="M87.7004 107.921L86.366 107.769C87.2751 99.8712 87.2361 94.5645 86.8342 86.9517L88.1726 86.8815C88.5784 94.5645 88.6174 99.9297 87.7004 107.921ZM94.4158 118.64L93.1203 118.3C94.6421 112.447 95.1338 109.267 95.5083 102.887L96.8467 102.965C96.4643 109.451 95.9649 112.674 94.4158 118.64ZM41.3018 71.8354C41.2524 71.8392 41.2028 71.8392 41.1535 71.8354C40.7612 71.7579 40.4127 71.5349 40.178 71.2111L39.5029 70.4307L40.5253 69.5645L41.2003 70.3449C41.2512 70.4056 41.3074 70.4617 41.3681 70.5126C41.333 70.4892 41.4383 70.4229 41.4734 70.3995C44.2128 68.6661 46.5857 66.4125 48.458 63.7661L49.5545 64.5465C47.5807 67.3447 45.0795 69.7305 42.1914 71.5701C41.9258 71.7406 41.6174 71.8326 41.3018 71.8354ZM53.4643 75.7218L52.2937 75.0546C53.5302 72.8906 54.0544 70.3924 53.7921 67.9139L55.1226 67.7695C55.4184 70.5287 54.8382 73.3109 53.4643 75.7218ZM49.3789 95.8053L48.497 94.7947C49.8977 93.5698 51.1901 92.2264 52.36 90.7795L53.398 91.6185C52.1809 93.1269 50.8363 94.5276 49.3789 95.8053ZM78.3708 96.2735L77.0324 96.176C77.5552 88.8871 76.9426 84.3608 75.5145 76.4515L76.8334 76.2134C78.1561 83.557 78.9209 88.5749 78.3708 96.2735Z" fill="#272B4C"/>
<g style="mix-blend-mode:overlay">
<path d="M81.4543 141.181C81.0579 140.951 80.6127 140.817 80.155 140.791C79.9264 140.782 79.6998 140.836 79.5006 140.949C79.3014 141.061 79.1374 141.227 79.0273 141.427C78.9568 141.562 78.9342 141.716 78.9633 141.865C78.9924 142.014 79.0714 142.149 79.1873 142.247C79.4041 142.357 79.6538 142.385 79.8896 142.325L80.7871 142.208C81.0324 142.186 81.2737 142.132 81.505 142.048C82.0513 141.821 81.903 141.408 81.4543 141.181ZM65.0152 146.504C65.0823 146.207 65.1163 145.903 65.1166 145.598C65.1791 144.869 65.4561 144.147 65.3625 143.421C65.3463 143.228 65.279 143.042 65.1674 142.883C65.1114 142.803 65.0362 142.74 64.9488 142.697C64.8615 142.655 64.7648 142.636 64.6679 142.641C64.5384 142.675 64.4191 142.741 64.32 142.831C64.2208 142.921 64.1448 143.034 64.0982 143.16C63.7806 143.872 63.5853 144.634 63.5207 145.411C63.4422 145.786 63.457 146.175 63.5636 146.543C63.6026 146.709 63.6977 146.856 63.8328 146.96C63.9679 147.065 64.1348 147.119 64.3053 147.114C64.4758 147.11 64.6395 147.046 64.7688 146.935C64.8982 146.824 64.9852 146.672 65.0152 146.504ZM62.6701 160.738C61.8125 160.592 60.9311 160.683 60.1221 161.003C59.7553 161.132 59.3417 161.343 59.2675 161.721C59.2541 161.943 59.3232 162.161 59.4617 162.334C59.6001 162.507 59.798 162.623 60.0167 162.658C60.4579 162.71 60.9047 162.691 61.3395 162.599C61.7251 162.589 62.1085 162.536 62.4828 162.443C63.3256 162.162 63.7978 160.98 62.6701 160.738ZM50.2344 157.796C50.043 157.657 49.8253 157.559 49.5945 157.507C49.1575 157.382 48.7165 157.277 48.2717 157.187C48.0373 157.119 47.7882 157.119 47.5537 157.187C47.2796 157.332 47.0645 157.568 46.945 157.855C46.8319 158.057 46.7148 158.319 46.8475 158.514C46.9031 158.582 46.9722 158.638 47.0504 158.678C47.2142 158.791 47.3945 158.878 47.585 158.935C47.7675 158.961 47.9526 158.961 48.1351 158.935L49.8442 158.811C50.4217 158.783 50.7417 158.221 50.2344 157.796ZM40.2063 162.713C39.6896 162.501 39.1174 162.467 38.5791 162.615C38.0464 162.765 37.532 162.975 37.0457 163.239C36.8113 163.336 36.5929 163.468 36.3979 163.63C36.3006 163.713 36.2229 163.818 36.1703 163.935C36.1177 164.052 36.0915 164.18 36.0936 164.308C36.1405 164.511 36.2482 164.694 36.4024 164.834C36.5565 164.973 36.7497 165.062 36.9559 165.089C37.6955 165.206 38.4533 165.079 39.1137 164.726C39.6639 164.507 41.412 163.278 40.2063 162.713ZM43.0781 141.704C43.0028 141.656 42.9156 141.629 42.826 141.627C42.7365 141.624 42.648 141.646 42.5701 141.69C42.4921 141.735 42.4278 141.799 42.3839 141.877C42.34 141.955 42.3183 142.044 42.3212 142.133C42.3438 142.293 42.4091 142.444 42.51 142.569C42.6109 142.695 42.7438 142.791 42.8948 142.848C43.7727 143.238 43.5152 142.032 43.0781 141.704ZM25.5582 156.204C25.5582 156.095 25.5582 155.986 25.5855 155.876C25.6089 155.556 25.6089 155.178 25.3475 154.991C25.2242 154.925 25.0843 154.897 24.9454 154.911C24.8065 154.925 24.6749 154.98 24.5671 155.069C24.4818 155.123 24.4104 155.196 24.3583 155.283C24.3061 155.37 24.2748 155.467 24.2666 155.568C24.2666 155.829 24.4968 156.025 24.6139 156.263C24.7309 156.501 24.7817 156.902 25.1133 156.918C25.445 156.934 25.5387 156.469 25.5582 156.204ZM41.6032 176.026C40.9077 175.941 40.2031 176.078 39.5898 176.416C39.2876 176.59 39.0547 176.863 38.9303 177.188C38.8059 177.514 38.7976 177.872 38.9069 178.203C38.9766 178.356 39.0781 178.491 39.2046 178.601C39.3312 178.711 39.4798 178.792 39.6405 178.839C40.0682 178.917 40.5092 178.873 40.9125 178.711C41.6071 178.5 42.6645 178.164 42.9845 177.419C43.3669 176.526 42.2821 176.069 41.6032 176.026Z" fill="white"/>
<path d="M58.2411 162.833C58.4744 162.66 58.6889 162.463 58.881 162.244C59.3805 161.757 60.0321 161.413 60.4184 160.832C60.5268 160.68 60.5941 160.502 60.6135 160.317C60.6221 160.225 60.6073 160.132 60.5705 160.048C60.5336 159.963 60.4759 159.889 60.4028 159.833C60.2883 159.776 60.1615 159.748 60.0336 159.751C59.9057 159.754 59.7805 159.789 59.6692 159.852C58.9947 160.164 58.3785 160.589 57.847 161.109C57.5575 161.331 57.3259 161.62 57.172 161.952C57.0942 162.096 57.0688 162.262 57.1002 162.423C57.1316 162.583 57.2177 162.728 57.344 162.832C57.4702 162.936 57.6287 162.993 57.7923 162.994C57.9559 162.994 58.1146 162.937 58.2411 162.833ZM47.6511 171.625C47.1246 170.981 46.4305 170.495 45.6454 170.22C45.4824 170.132 45.3001 170.086 45.1148 170.086C44.9295 170.086 44.7471 170.132 44.5841 170.22C44.4347 170.37 44.347 170.571 44.3384 170.782C44.3297 170.994 44.4007 171.201 44.5373 171.363C44.822 171.675 45.1554 171.939 45.5245 172.144C45.81 172.377 46.1201 172.578 46.4493 172.744C47.2297 173.057 48.3261 172.503 47.6511 171.625ZM40.5221 161.725C40.4737 161.504 40.3778 161.297 40.2412 161.117C40.0071 160.754 39.7573 160.403 39.492 160.059C39.3611 159.862 39.1771 159.707 38.9613 159.61C38.6733 159.545 38.3715 159.581 38.1068 159.712C37.8961 159.786 37.6502 159.903 37.6268 160.125C37.6223 160.209 37.6356 160.293 37.6659 160.371C37.7138 160.555 37.7902 160.73 37.8922 160.89C38.0047 161.027 38.1361 161.146 38.2824 161.245L39.5934 162.225C40.0461 162.556 40.6275 162.35 40.5221 161.725ZM30.2208 159.002C29.9834 158.526 29.5931 158.144 29.1127 157.917C28.635 157.692 28.1338 157.52 27.6182 157.406C27.3847 157.332 27.1413 157.294 26.8963 157.293C26.7736 157.293 26.6524 157.32 26.5412 157.372C26.43 157.424 26.3315 157.499 26.2525 157.593C26.157 157.768 26.1178 157.969 26.1401 158.167C26.1625 158.365 26.2453 158.552 26.3774 158.701C26.8358 159.25 27.4626 159.633 28.1606 159.79C28.7147 159.95 30.7437 160.161 30.2208 159.002ZM45.4347 145.657C45.4111 145.574 45.3652 145.5 45.3021 145.442C45.239 145.383 45.161 145.344 45.0769 145.327C44.9927 145.31 44.9054 145.316 44.8247 145.346C44.744 145.375 44.6729 145.426 44.6192 145.493C44.5357 145.622 44.4887 145.771 44.4832 145.924C44.4777 146.077 44.5139 146.229 44.588 146.363C44.9743 147.194 45.5557 146.156 45.4347 145.657ZM23.7435 145.154L23.9659 144.935C24.1844 144.72 24.4225 144.443 24.3561 144.155C24.3093 144.026 24.2244 143.915 24.1129 143.837C24.0013 143.758 23.8684 143.715 23.7318 143.714C23.6367 143.699 23.5394 143.707 23.4479 143.737C23.3564 143.766 23.2732 143.817 23.205 143.885C23.0412 144.073 23.0841 144.358 23.0177 144.599C22.9514 144.841 22.7407 145.169 22.9709 145.38C23.2011 145.591 23.5562 145.333 23.7435 145.154ZM22.9085 169.463C22.4614 168.967 21.8709 168.621 21.2189 168.476C20.8918 168.414 20.5536 168.468 20.2609 168.626C19.9683 168.784 19.7389 169.039 19.6113 169.346C19.565 169.5 19.5526 169.661 19.5748 169.82C19.597 169.979 19.6534 170.132 19.7401 170.267C20.0018 170.592 20.3511 170.836 20.7468 170.969C21.3789 171.254 22.3505 171.671 23.0451 171.336C23.8645 170.93 23.3728 169.919 22.9085 169.463ZM31.3758 176.678C31.4643 176.597 31.5348 176.499 31.5826 176.389C31.6451 176.264 31.7114 176.139 31.7621 175.999C31.7663 175.982 31.7663 175.965 31.7621 175.948C31.7621 175.909 31.6919 175.909 31.6529 175.925C31.5201 175.975 31.4031 176.06 31.3134 176.17C31.2444 176.24 31.1946 176.326 31.169 176.42C31.1573 176.537 31.2237 176.795 31.3758 176.678ZM31.2354 170.712C31.154 170.705 31.0723 170.718 30.9973 170.751C30.96 170.766 30.9292 170.794 30.91 170.829C30.8908 170.865 30.8844 170.906 30.892 170.946C30.9092 170.996 30.9438 171.039 30.9895 171.067C31.1477 171.166 31.322 171.238 31.5046 171.277L31.809 171.367C32.0626 171.437 32.3201 171.511 32.5894 171.566C32.6986 171.59 32.921 171.609 32.921 171.441C32.921 171.273 32.7337 171.188 32.6362 171.117C32.3768 170.941 32.0828 170.823 31.7738 170.77C31.5962 170.736 31.4161 170.717 31.2354 170.712ZM32.8937 165.522C32.8353 165.359 32.739 165.212 32.6128 165.093C32.5499 165.033 32.4714 164.993 32.3864 164.976C32.3014 164.96 32.2135 164.968 32.1328 164.999C32.0794 165.02 32.0348 165.058 32.0064 165.108C31.9779 165.158 31.9675 165.216 31.9767 165.272C32.0104 165.358 32.0761 165.428 32.1601 165.467L32.4489 165.655C32.5251 165.709 32.6077 165.753 32.6947 165.787C32.9054 165.854 32.9639 165.698 32.8937 165.522ZM26.8651 163.025C26.9558 162.955 27.0394 162.877 27.1148 162.791C27.3356 162.624 27.5383 162.434 27.7197 162.225C27.7614 162.163 27.7869 162.092 27.7938 162.018C27.7967 161.981 27.7903 161.945 27.7753 161.911C27.7603 161.878 27.7371 161.849 27.708 161.827C27.6633 161.804 27.6138 161.792 27.5636 161.792C27.5134 161.792 27.4639 161.804 27.4192 161.827C27.1529 161.954 26.9102 162.126 26.7012 162.334C26.5868 162.423 26.4957 162.538 26.4359 162.67C26.3997 162.727 26.3857 162.796 26.3966 162.864C26.4074 162.931 26.4424 162.992 26.4949 163.035C26.5474 163.079 26.6139 163.102 26.682 163.1C26.7501 163.098 26.8152 163.071 26.8651 163.025ZM22.6861 166.552C22.4812 166.301 22.2113 166.11 21.9057 166.002C21.8408 165.967 21.7684 165.949 21.695 165.949C21.6215 165.949 21.5491 165.967 21.4843 166.002C21.4278 166.064 21.3965 166.144 21.3965 166.228C21.3965 166.312 21.4278 166.393 21.4843 166.455C21.5977 166.577 21.7293 166.681 21.8745 166.763C21.9885 166.853 22.1114 166.931 22.2413 166.997C22.5261 167.122 22.9631 166.899 22.6861 166.552ZM19.8415 162.654C19.8192 162.568 19.7808 162.487 19.7284 162.416C19.6308 162.272 19.5294 162.135 19.424 161.998C19.3726 161.922 19.301 161.861 19.2172 161.823C19.1024 161.798 18.9828 161.813 18.8777 161.866C18.7958 161.897 18.6982 161.944 18.6904 162.034C18.6851 162.066 18.6851 162.099 18.6904 162.131C18.7095 162.204 18.7412 162.272 18.7841 162.334C18.8281 162.388 18.8793 162.435 18.9363 162.474L19.4591 162.865C19.6386 162.986 19.8688 162.904 19.8415 162.654ZM15.7288 161.616C15.6324 161.428 15.4758 161.279 15.284 161.191C15.0948 161.101 14.8957 161.034 14.6909 160.992C14.5971 160.964 14.4999 160.949 14.4021 160.949C14.3533 160.95 14.3053 160.962 14.2615 160.983C14.2177 161.005 14.1791 161.036 14.1485 161.074C14.1125 161.144 14.0985 161.223 14.1083 161.301C14.118 161.379 14.1511 161.452 14.2031 161.511C14.3881 161.724 14.6373 161.872 14.9133 161.932C15.1357 161.998 15.9395 162.073 15.7288 161.616ZM21.7106 156.266C21.7005 156.234 21.6818 156.205 21.6566 156.183C21.6314 156.16 21.6005 156.145 21.5673 156.138C21.5341 156.132 21.4998 156.135 21.468 156.146C21.4362 156.158 21.4081 156.178 21.3867 156.204C21.3562 156.256 21.3401 156.315 21.3401 156.376C21.3401 156.436 21.3562 156.495 21.3867 156.547C21.5311 156.879 21.7574 156.469 21.7106 156.266ZM13.1067 156.145L13.2081 156.079C13.2901 155.993 13.3837 155.884 13.3564 155.763C13.3364 155.713 13.302 155.67 13.2575 155.639C13.2131 155.609 13.1606 155.592 13.1067 155.591C13.0685 155.586 13.0297 155.59 12.9932 155.602C12.9567 155.614 12.9235 155.635 12.896 155.662C12.8335 155.736 12.853 155.849 12.8257 155.946C12.7984 156.044 12.7165 156.173 12.8257 156.259C12.935 156.344 13.0325 156.22 13.1067 156.145ZM24.641 173.111C24.7429 173.056 24.8362 172.986 24.918 172.904C25.0507 172.787 25.1717 172.663 25.3082 172.538C25.3623 172.496 25.4075 172.443 25.441 172.384C25.4745 172.324 25.4957 172.258 25.5033 172.19C25.5033 172.007 25.3082 171.886 25.1131 171.859C24.9582 171.842 24.8017 171.849 24.6488 171.878C24.4648 171.902 24.2857 171.955 24.1181 172.034C23.9521 172.114 23.8223 172.253 23.7552 172.425C23.5874 172.971 24.1962 173.33 24.641 173.111Z" fill="white"/>
</g>
<g style="mix-blend-mode:overlay">
<path d="M66.1979 155.88C66.0599 155.827 65.9125 155.803 65.7648 155.81H65.242C65.2212 155.812 65.2011 155.818 65.1834 155.829C65.1444 155.865 65.1834 155.927 65.2107 155.966C65.3432 156.083 65.5028 156.165 65.6751 156.204C65.7897 156.241 65.9117 156.249 66.0302 156.227C66.1667 156.204 66.4126 155.986 66.1979 155.88ZM59.6582 159.333C59.6951 159.428 59.754 159.512 59.8299 159.579C59.8698 159.609 59.9184 159.626 59.9684 159.626C60.0184 159.626 60.067 159.609 60.1069 159.579C60.1536 159.532 60.1814 159.47 60.185 159.404C60.2102 159.174 60.1943 158.941 60.1381 158.717C60.1147 158.588 60.0874 158.459 60.064 158.327C60.0016 158.003 59.943 157.675 59.8611 157.359C59.826 157.222 59.7245 156.969 59.5372 157.059C59.3499 157.148 59.3577 157.402 59.3343 157.55C59.284 157.936 59.3146 158.328 59.4241 158.701C59.4858 158.918 59.5641 159.129 59.6582 159.333ZM52.9819 160.371C52.8327 160.527 52.7218 160.716 52.658 160.922C52.6282 161.025 52.6278 161.134 52.6567 161.238C52.6857 161.341 52.7429 161.434 52.8219 161.507C52.875 161.554 52.9426 161.582 53.0136 161.585C53.0845 161.589 53.1545 161.568 53.2121 161.526C53.2861 161.439 53.3262 161.328 53.3253 161.214C53.3253 161.074 53.3565 160.933 53.376 160.793C53.3896 160.677 53.3896 160.561 53.376 160.446C53.3409 160.165 53.1341 160.188 52.9819 160.371ZM53.5516 168.448C53.4268 168.386 53.2961 168.336 53.1614 168.3C52.8536 168.148 52.5305 168.029 52.1976 167.945C52.107 167.929 52.0137 167.938 51.9283 167.972C51.8864 167.989 51.8493 168.016 51.8206 168.051C51.7919 168.086 51.7726 168.127 51.7645 168.171C51.7656 168.234 51.7818 168.295 51.8117 168.35C51.8416 168.405 51.8843 168.452 51.9361 168.487C52.2247 168.713 52.5492 168.889 52.896 169.006C53.0577 169.084 53.2357 169.122 53.415 169.116C53.4931 169.112 53.5678 169.083 53.6273 169.032C53.6868 168.981 53.7276 168.912 53.7433 168.835C53.7589 168.759 53.7486 168.679 53.7139 168.609C53.6792 168.539 53.622 168.482 53.5516 168.448ZM59.7675 171.121C59.6028 171.495 59.5447 171.907 59.5997 172.311C59.5959 172.403 59.615 172.493 59.6553 172.575C59.6955 172.657 59.7555 172.727 59.8299 172.78C59.9289 172.812 60.0366 172.806 60.1314 172.763C60.2261 172.719 60.301 172.642 60.341 172.546C60.4149 172.351 60.4557 172.145 60.462 171.937C60.5027 171.76 60.5223 171.58 60.5205 171.398C60.4893 170.985 60.0055 170.634 59.7675 171.121ZM57.0243 176.451C56.94 176.523 56.8709 176.61 56.8214 176.709C56.7161 176.896 56.6185 177.099 56.5249 177.275C56.4689 177.375 56.4419 177.488 56.4468 177.603C56.4805 177.744 56.5635 177.868 56.681 177.954C56.759 178.032 56.8683 178.114 56.9697 178.075C57.0069 178.057 57.04 178.032 57.0673 178.001C57.1374 177.939 57.1968 177.867 57.2429 177.786C57.2723 177.707 57.2907 177.624 57.2975 177.54C57.3443 177.275 57.3872 177.013 57.4341 176.76C57.4809 176.506 57.2975 176.268 57.0243 176.451ZM48.8926 177.895C48.8627 177.924 48.8412 177.96 48.8303 178.001C48.8194 178.041 48.8196 178.083 48.8308 178.123C48.842 178.163 48.8638 178.199 48.8939 178.228C48.924 178.256 48.9613 178.276 49.0018 178.285C49.0774 178.293 49.1537 178.28 49.2224 178.248C49.2912 178.216 49.3498 178.165 49.392 178.102C49.6691 177.751 49.1033 177.731 48.8926 177.895ZM65.9638 165.323C65.844 165.24 65.7125 165.176 65.5736 165.132C65.3707 165.054 65.1834 164.984 64.9571 164.917C64.8811 164.88 64.7985 164.859 64.714 164.854C64.6296 164.849 64.5451 164.862 64.4655 164.89C64.3742 164.957 64.3086 165.053 64.2795 165.162C64.2504 165.271 64.2596 165.387 64.3055 165.491C64.3705 165.672 64.464 165.842 64.5825 165.994C64.7114 166.185 64.8694 166.355 65.0508 166.497C65.2356 166.638 65.4675 166.702 65.6985 166.677C66.3891 166.572 66.4555 165.698 65.9638 165.323ZM64.6059 160.762C64.253 160.593 63.8653 160.51 63.4743 160.52C63.2795 160.528 63.0908 160.59 62.9289 160.699C62.7671 160.807 62.6385 160.959 62.5574 161.136C62.5071 161.255 62.4986 161.388 62.5333 161.513C62.568 161.638 62.6439 161.747 62.7486 161.823C62.9414 161.902 63.1559 161.908 63.3534 161.842L64.1065 161.682C64.3146 161.649 64.5169 161.586 64.7074 161.495C65.1561 161.245 65.0039 160.902 64.6059 160.762ZM50.9958 166.377C51.0306 166.118 51.0397 165.857 51.0231 165.596C51.0231 164.972 51.2104 164.344 51.0816 163.731C51.0523 163.568 50.9826 163.415 50.8787 163.286C50.8258 163.222 50.7576 163.173 50.6804 163.143C50.6033 163.113 50.5198 163.103 50.4378 163.114C50.3298 163.152 50.2327 163.216 50.1546 163.299C50.0764 163.383 50.0196 163.484 49.989 163.594C49.7667 164.221 49.6519 164.881 49.6496 165.545C49.61 165.87 49.6488 166.199 49.7627 166.505C49.8061 166.645 49.8965 166.765 50.0185 166.846C50.1405 166.926 50.2867 166.962 50.432 166.946C50.5774 166.931 50.713 166.866 50.8158 166.762C50.9186 166.658 50.9822 166.522 50.9958 166.377ZM49.9656 178.633C49.228 178.563 48.4855 178.698 47.8195 179.023C47.5152 179.156 47.1874 179.362 47.1445 179.69C47.1016 180.018 47.4683 180.381 47.8429 180.435C48.2214 180.451 48.5998 180.403 48.9628 180.295C49.2896 180.26 49.6115 180.19 49.9227 180.084C50.6212 179.799 50.9411 178.765 49.9656 178.633ZM39.1961 176.978C39.0252 176.872 38.8337 176.803 38.6342 176.775C38.244 176.697 37.8538 176.639 37.4909 176.592C37.286 176.552 37.0738 176.569 36.8783 176.643C36.6575 176.785 36.4911 176.999 36.4062 177.247C36.3242 177.431 36.2423 177.661 36.3711 177.817C36.4212 177.873 36.4841 177.916 36.5545 177.942C36.701 178.028 36.8604 178.09 37.0266 178.125C37.1819 178.14 37.3384 178.13 37.4909 178.098L38.9386 177.88C39.4263 177.805 39.6604 177.306 39.1961 176.978ZM32.0281 163.786C31.9605 163.75 31.8844 163.733 31.808 163.737C31.7315 163.741 31.6577 163.766 31.5943 163.809C31.5309 163.852 31.4804 163.911 31.4482 163.981C31.4161 164.05 31.4034 164.127 31.4116 164.203C31.4424 164.335 31.5067 164.456 31.5984 164.555C31.69 164.654 31.8058 164.728 31.9345 164.769C32.7149 165.054 32.4183 164.024 32.0281 163.786Z" fill="white"/>
<path d="M51.168 162.74C50.9836 162.69 50.7905 162.68 50.6022 162.713C50.1651 162.738 49.7372 162.848 49.3419 163.036C49.1448 163.132 48.9699 163.268 48.8288 163.435C48.6876 163.602 48.5832 163.798 48.5224 164.008C48.5031 164.088 48.5031 164.17 48.5224 164.25C48.5509 164.331 48.5973 164.404 48.6581 164.464C48.719 164.524 48.7926 164.57 48.8736 164.597C49.1859 164.731 49.5182 164.811 49.8569 164.835C50.0359 164.855 50.2164 164.855 50.3954 164.835C51.0782 164.761 51.925 163.981 51.6518 163.235C51.6148 163.121 51.5518 163.017 51.4679 162.931C51.384 162.845 51.2813 162.78 51.168 162.74ZM38.9586 148.97C38.6963 148.797 38.3993 148.684 38.0885 148.638C37.7273 148.549 37.3612 148.481 36.992 148.435C36.9486 148.423 36.9028 148.423 36.8594 148.435C36.7657 148.49 36.8047 148.638 36.8594 148.732C37.0809 149.037 37.3781 149.279 37.7217 149.434C37.9445 149.56 38.1956 149.627 38.4514 149.629C38.7713 149.629 39.3761 149.282 38.9586 148.97ZM23.8501 153.321C23.8858 153.531 23.9714 153.731 24.0998 153.902C24.1671 153.986 24.2603 154.045 24.3647 154.07C24.4691 154.096 24.579 154.086 24.6773 154.042C24.7935 153.961 24.8788 153.843 24.9192 153.707C25.0685 153.238 25.1345 152.747 25.1143 152.255V151.42C25.1143 150.718 25.1417 150.016 25.1143 149.317C25.1143 149.021 25.0012 148.439 24.5759 148.537C24.2247 148.63 24.0491 149.177 23.9359 149.477C23.6615 150.256 23.5551 151.085 23.6238 151.908C23.6634 152.384 23.739 152.856 23.8501 153.321ZM34.3816 168.538C34.1715 168.316 33.9311 168.124 33.6675 167.969C33.2773 167.719 32.8871 167.485 32.4969 167.251C32.206 167.031 31.8402 166.934 31.4785 166.981C31.0181 167.114 30.8386 167.688 30.8854 168.152C30.9439 168.559 31.0664 168.954 31.2483 169.323C31.4323 169.778 31.6878 170.201 32.0053 170.575C32.3282 170.95 32.7843 171.185 33.2773 171.231C34.7211 171.32 35.24 169.525 34.3816 168.538ZM47.6913 185.836C47.3553 185.708 47.0095 185.607 46.6573 185.535C46.4571 185.446 46.2316 185.431 46.0213 185.492C45.9595 185.538 45.9079 185.595 45.8699 185.662C45.8319 185.728 45.8082 185.802 45.8005 185.878C45.7928 185.954 45.8011 186.031 45.8251 186.104C45.849 186.176 45.8879 186.243 45.9393 186.3C46.1626 186.518 46.4447 186.666 46.7509 186.725L47.4767 186.932C48.4951 187.229 48.46 186.203 47.6913 185.836ZM55.7372 178.843C55.6935 178.742 55.62 178.656 55.5265 178.598C55.3275 178.504 55.0895 178.699 55.0583 178.918C55.0499 179.139 55.1174 179.356 55.2495 179.534C55.3822 179.756 55.987 180.88 56.3928 180.58C56.7986 180.279 55.8621 179.101 55.7372 178.843Z" fill="white"/>
</g>
</g>
<path d="M41.8989 77.2982C40.7784 77.5124 39.6918 77.8759 38.668 78.3791C37.6363 78.8896 36.8191 79.7496 36.362 80.8061C36.0339 81.7318 36.0106 82.7381 36.2956 83.678C36.8673 85.4662 38.077 86.9815 39.6943 87.935C40.5956 88.5008 41.8716 89.2227 44.9034 89.8353C47.7277 90.4014 50.6102 90.6228 53.4878 90.4947C53.8786 86.6576 54.4936 82.8467 55.3296 79.0814L53.9366 75.5696C52.247 75.6945 50.8423 75.8389 49.8161 75.9598C47.1505 76.2317 44.5057 76.6788 41.8989 77.2982Z" fill="#305E50"/>
<path d="M49.3827 113.524C51.1425 112.038 50.9435 109.361 50.8498 108.062C50.6541 105.898 49.7692 103.855 48.3252 102.232L35.7218 90.3972C35.3316 88.5399 35.0233 86.9323 34.7697 85.6485C33.8488 80.9232 33.7864 79.5224 33.6537 77.7743C33.5601 76.5647 33.5132 75.3083 33.9425 74.1728C31.8851 73.5792 29.7029 73.5713 27.6412 74.15C25.5796 74.7286 23.7202 75.8708 22.2721 77.4482C20.8241 79.0256 19.8447 80.9757 19.4441 83.0792C19.0435 85.1826 19.2376 87.3562 20.0045 89.3554C17.1665 90.5451 14.8662 92.7385 13.5428 95.5166C11.9625 98.8723 11.982 102.778 13.1955 106.235C11.108 107.106 9.6291 109.142 9.13354 111.351C7.92392 116.747 11.6308 121.836 14.9865 125.632C11.9586 129.191 14.4637 134.216 16.8946 137.276C19.3256 140.335 22.2638 143.203 25.8458 144.853C29.4278 146.504 33.7825 146.804 37.2748 144.978C37.6589 144.788 38.0137 144.543 38.3283 144.252C39.7096 142.895 39.4326 139.941 38.1254 138.587C40.9895 139.273 43.6584 138.462 44.7588 136.655C45.8045 134.954 45.149 132.905 44.79 131.825C43.7053 128.481 40.888 126.791 39.9398 126.264C40.4627 126.295 44.0213 126.475 45.7187 124.247C47.6697 121.676 46.7332 116.443 42.0742 113.107C44.6847 114.835 47.6814 114.96 49.3827 113.524ZM96.4642 133.315L103.617 138.583L109.228 142.719C110.964 143.995 113.309 145.364 114.402 147.253C115.416 149.021 115.209 151.264 114.476 153.161C111.702 160.325 104.448 165.799 98.7313 170.599C93.885 174.664 88.949 178.793 83.1662 181.356C81.4298 182.137 79.5724 182.761 77.6761 182.671C74.3594 182.511 72.5567 179.667 70.5432 177.419C68.1357 174.731 65.6111 172.155 63.227 169.451C64.4709 166.762 65.9393 164.183 67.6167 161.741C67.8821 161.351 68.1279 161.008 68.4869 160.535C69.5404 159.162 70.4379 158.245 73.4268 155.334L74.8666 153.925C76.1192 152.72 78.5033 150.414 81.5 147.733C84.4968 145.052 87.6613 142.364 88.9138 141.314C90.3459 140.108 90.7673 139.777 91.5399 139.047C93.3725 137.309 95.0225 135.389 96.4642 133.315Z" fill="#305E50"/>
<mask id="mask1_145_778" style="mask-type:luminance" maskUnits="userSpaceOnUse" x="63" y="133" width="53" height="50">
<path d="M96.4658 133.315L103.618 138.583L109.229 142.719C110.966 143.995 113.311 145.364 114.403 147.253C115.418 149.021 115.211 151.264 114.477 153.161C111.703 160.325 104.449 165.799 98.7328 170.599C93.8865 174.664 88.9505 178.793 83.1677 181.356C81.4313 182.137 79.574 182.761 77.6776 182.671C74.3609 182.511 72.5582 179.667 70.5448 177.419C68.1372 174.731 65.6126 172.155 63.2285 169.451C64.4724 166.762 65.9409 164.183 67.6183 161.741C67.8836 161.351 68.1294 161.007 68.4884 160.535C69.542 159.162 70.4394 158.245 73.4283 155.334L74.8682 153.925C76.1207 152.72 78.5048 150.414 81.5016 147.733C84.4983 145.052 87.6628 142.364 88.9154 141.314C90.3474 140.108 90.7688 139.777 91.5414 139.047C93.3741 137.309 95.0241 135.389 96.4658 133.315Z" fill="white"/>
</mask>
<g mask="url(#mask1_145_778)">
<path d="M100.312 133.791C99.7936 133.818 99.2884 133.967 98.8373 134.224C98.6146 134.356 98.433 134.548 98.3131 134.778C98.1932 135.007 98.1396 135.265 98.1584 135.524C98.1777 135.694 98.2524 135.853 98.3708 135.976C98.4893 136.099 98.6449 136.18 98.8139 136.207C99.0881 136.175 99.3424 136.048 99.5319 135.848L100.312 135.18C100.534 135.011 100.731 134.811 100.898 134.587C101.276 134.033 100.878 133.729 100.312 133.791ZM87.9586 148.989C87.8375 148.666 87.6832 148.356 87.4981 148.065C87.1079 147.331 86.9245 146.477 86.39 145.844C86.2534 145.672 86.0746 145.538 85.871 145.454C85.7686 145.414 85.6575 145.4 85.5482 145.414C85.439 145.429 85.3352 145.471 85.2467 145.536C85.1446 145.648 85.0711 145.784 85.0324 145.93C84.9937 146.077 84.9909 146.231 85.0243 146.379C85.1615 147.253 85.4452 148.097 85.8632 148.876C86.0222 149.28 86.275 149.64 86.6007 149.926C86.7409 150.059 86.9227 150.14 87.1154 150.155C87.3082 150.17 87.5004 150.118 87.6595 150.009C87.8187 149.899 87.9353 149.738 87.9898 149.552C88.0442 149.367 88.0332 149.168 87.9586 148.989ZM94.5061 163.977C93.5985 164.365 92.8163 164.997 92.2469 165.803C91.9776 166.15 91.7201 166.584 91.8762 167.009C92.0557 167.481 92.6956 167.61 93.1677 167.438C93.6192 167.216 94.0316 166.922 94.3891 166.568C94.7486 166.32 95.0797 166.034 95.3763 165.713C96.0045 164.925 95.7314 163.513 94.5061 163.977ZM80.8608 168.847C80.5952 168.833 80.3296 168.875 80.0804 168.968C79.5888 169.116 79.101 169.288 78.625 169.479C78.3601 169.558 78.1233 169.711 77.9421 169.92C77.7708 170.227 77.7115 170.584 77.7743 170.93C77.7743 171.196 77.8446 171.512 78.0865 171.617C78.1824 171.646 78.2831 171.657 78.3831 171.648C78.5989 171.67 78.8169 171.647 79.0231 171.579C79.2294 171.512 79.4194 171.403 79.581 171.258L81.1418 170.087C81.649 169.67 81.61 168.956 80.8608 168.847ZM103.551 150.336C103.496 150.247 103.423 150.171 103.336 150.113C103.154 149.963 102.945 149.849 102.72 149.778C102.607 149.743 102.489 149.733 102.372 149.747C102.255 149.761 102.142 149.799 102.041 149.86C102.003 149.882 101.971 149.913 101.947 149.949C101.928 149.991 101.918 150.036 101.918 150.082C101.918 150.128 101.928 150.173 101.947 150.215C102.021 150.382 102.123 150.537 102.248 150.671C102.309 150.747 102.378 150.815 102.454 150.874C102.751 151.097 103.368 151.1 103.535 150.706C103.567 150.65 103.584 150.587 103.587 150.523C103.59 150.458 103.577 150.394 103.551 150.336ZM91.2011 170.013C91.1605 169.85 91.0861 169.697 90.9826 169.565C90.8731 169.396 90.7532 169.234 90.6236 169.081C90.6113 169.06 90.5919 169.045 90.569 169.038C90.5105 169.038 90.4715 169.096 90.4637 169.155C90.4379 169.356 90.4647 169.56 90.5417 169.748C90.5821 169.88 90.6561 170 90.7563 170.095C90.8773 170.201 91.248 170.286 91.2011 170.013ZM83.6547 166.158C83.5895 166.255 83.5493 166.366 83.5376 166.482C83.5336 166.539 83.5486 166.597 83.5804 166.645C83.6121 166.692 83.6588 166.729 83.7132 166.747C83.7876 166.76 83.8641 166.745 83.9278 166.704C84.1594 166.576 84.3667 166.409 84.5404 166.209L84.8565 165.885C85.1179 165.612 85.3832 165.343 85.6369 165.054C85.7383 164.933 85.9139 164.664 85.7032 164.554C85.4925 164.445 85.2623 164.613 85.1062 164.691C84.7126 164.896 84.3668 165.182 84.0917 165.53C83.9296 165.727 83.7835 165.938 83.6547 166.158ZM78.2855 160.578C78.0424 160.54 77.7937 160.56 77.5597 160.637C77.4433 160.677 77.3404 160.748 77.2625 160.843C77.1845 160.938 77.1348 161.053 77.1188 161.175C77.1062 161.258 77.1231 161.342 77.1667 161.414C77.2102 161.485 77.2776 161.539 77.3568 161.566C77.4863 161.579 77.6163 161.546 77.7236 161.472L78.1528 161.238C78.2716 161.179 78.3819 161.104 78.4806 161.015C78.7108 160.785 78.5547 160.606 78.2855 160.578ZM71.0824 166.439C71.0578 166.278 71.0159 166.119 70.9576 165.967C70.898 165.578 70.7973 165.196 70.6571 164.828C70.6115 164.734 70.5414 164.654 70.4542 164.597C70.411 164.568 70.361 164.551 70.309 164.546C70.257 164.542 70.2048 164.552 70.1576 164.574C70.0957 164.617 70.0461 164.676 70.0139 164.745C69.9818 164.813 69.9681 164.889 69.9742 164.964C69.9536 165.382 70.0037 165.8 70.1225 166.201C70.156 166.403 70.2376 166.595 70.3605 166.759C70.403 166.855 70.4817 166.93 70.5794 166.967C70.6771 167.005 70.7857 167.002 70.8815 166.96C70.9772 166.918 71.0521 166.839 71.0898 166.741C71.1275 166.644 71.1248 166.535 71.0824 166.439ZM72.6744 174.028C72.2164 174.122 71.7927 174.339 71.4492 174.657C71.3607 174.713 71.2878 174.791 71.2373 174.883C71.1868 174.975 71.1604 175.078 71.1605 175.183C71.1966 175.297 71.2738 175.393 71.3769 175.453C71.4801 175.513 71.6018 175.532 71.7184 175.507C71.9494 175.448 72.1694 175.352 72.3701 175.222C72.559 175.14 72.7394 175.04 72.9086 174.922C73.2988 174.614 73.2987 173.931 72.6744 174.028ZM75.5892 184.478C75.4301 184.474 75.2739 184.522 75.1444 184.615C74.9145 184.755 74.7046 184.926 74.5201 185.122C74.473 185.16 74.4367 185.21 74.4148 185.267C74.3929 185.324 74.3862 185.386 74.3952 185.446C74.427 185.508 74.4796 185.557 74.5438 185.584C74.608 185.611 74.6798 185.614 74.7464 185.594C74.907 185.554 75.0582 185.482 75.1912 185.383C75.3629 185.278 76.4203 184.564 75.5892 184.478ZM82.1914 176.019C82.1936 175.855 82.1699 175.691 82.1212 175.535C82.0626 175.293 81.9885 175.055 81.9183 174.813C81.8852 174.62 81.7772 174.447 81.6178 174.333C81.4945 174.294 81.3618 174.297 81.2404 174.341C81.1189 174.386 81.0157 174.469 80.9467 174.579C80.8209 174.76 80.7247 174.96 80.6618 175.172C80.5659 175.421 80.5106 175.685 80.4979 175.952C80.4855 176.218 80.5779 176.479 80.7555 176.678C81.3057 177.24 82.168 176.725 82.1914 176.019ZM93.6828 158.14C93.5985 157.965 93.4993 157.798 93.3862 157.64C93.3238 157.539 93.2653 157.422 93.1521 157.39C93.039 157.359 92.8322 157.507 92.8205 157.675C92.8286 157.843 92.8855 158.004 92.9843 158.14L93.1951 158.491C93.4877 158.979 93.8506 158.565 93.6828 158.14ZM99.4656 155.572C98.9555 156.409 98.6855 157.37 98.6852 158.35C98.6657 158.787 98.7125 159.299 99.0754 159.544C99.4382 159.79 100.082 159.544 100.367 159.154C100.605 158.715 100.771 158.241 100.859 157.749C101.008 157.341 101.113 156.917 101.171 156.485C101.229 155.482 100.195 154.495 99.4656 155.572Z" fill="#272B4C"/>
<path d="M91.186 167.356C90.959 167.497 90.7647 167.684 90.6163 167.906C90.3041 168.296 90.0076 168.726 89.7306 169.155C89.5593 169.372 89.4537 169.633 89.4262 169.908C89.4655 170.254 89.6226 170.577 89.871 170.821C90.0349 171.028 90.2612 171.254 90.5188 171.211C90.6148 171.183 90.7039 171.135 90.7802 171.071C90.9667 170.961 91.1283 170.813 91.2546 170.637C91.3809 170.461 91.4691 170.26 91.5138 170.048C91.7089 169.434 91.9053 168.821 92.103 168.207C92.2981 167.571 91.8454 167.005 91.186 167.356ZM71.3482 168.109C71.2661 168.168 71.2015 168.248 71.1615 168.34C71.1216 168.433 71.1076 168.535 71.1213 168.635C71.1349 168.735 71.1757 168.829 71.239 168.908C71.3024 168.986 71.386 169.046 71.4809 169.081C71.6572 169.126 71.8425 169.122 72.0167 169.069C72.1908 169.016 72.347 168.916 72.4681 168.78C73.2485 168.027 71.8633 167.785 71.3482 168.109ZM88.6614 163.903C88.6001 163.919 88.543 163.949 88.4936 163.989C88.373 164.073 88.2686 164.179 88.1854 164.301C88.1451 164.362 88.1183 164.432 88.1069 164.504C88.0955 164.577 88.0996 164.651 88.119 164.722C88.1251 164.748 88.1372 164.772 88.1541 164.792C88.1768 164.809 88.2027 164.821 88.2302 164.828C88.2577 164.835 88.2862 164.836 88.3141 164.831C88.4269 164.815 88.5363 164.781 88.638 164.73C88.6949 164.707 88.7487 164.677 88.798 164.64C88.9814 164.504 89.0906 164.133 88.8838 163.965C88.8542 163.938 88.8186 163.918 88.78 163.908C88.7414 163.897 88.7008 163.895 88.6614 163.903ZM82.7928 162.034C82.6873 162.029 82.5819 162.047 82.4845 162.088C82.3675 162.127 82.2465 162.166 82.1334 162.217C82.1201 162.224 82.1082 162.233 82.0982 162.244C82.0982 162.276 82.0982 162.311 82.1529 162.326C82.2678 162.378 82.3947 162.397 82.5197 162.381C82.6048 162.381 82.6885 162.358 82.7616 162.315C82.8474 162.26 82.9606 162.053 82.7928 162.034ZM79.1913 165.877C79.2348 165.935 79.2945 165.978 79.3629 166.002C79.3961 166.015 79.4328 166.017 79.4669 166.006C79.501 165.995 79.5304 165.973 79.5502 165.943C79.566 165.899 79.566 165.851 79.5502 165.807C79.5136 165.647 79.4489 165.495 79.359 165.358C79.3122 165.276 79.2654 165.194 79.2225 165.112C79.1054 164.909 78.9883 164.722 78.8596 164.508C78.805 164.426 78.6762 164.277 78.5708 164.383C78.4655 164.488 78.5318 164.656 78.5708 164.773C78.6229 165.044 78.7335 165.301 78.8947 165.526C78.9855 165.65 79.0846 165.767 79.1913 165.877ZM74.9342 168.125C74.8739 168.263 74.8485 168.415 74.86 168.566C74.8635 168.641 74.888 168.715 74.9307 168.777C74.9734 168.84 75.0327 168.89 75.102 168.921C75.149 168.941 75.2014 168.944 75.2504 168.929C75.2994 168.915 75.3421 168.885 75.3712 168.843C75.4006 168.766 75.4006 168.681 75.3712 168.605C75.3517 168.507 75.3283 168.41 75.3088 168.312C75.2934 168.231 75.2672 168.152 75.2307 168.078C75.1293 167.906 74.9966 167.969 74.9342 168.125ZM77.2012 173.435C77.1 173.426 76.9981 173.426 76.8969 173.435C76.6544 173.408 76.4097 173.408 76.1672 173.435C76.1016 173.444 76.0403 173.472 75.9916 173.517C75.9673 173.538 75.9485 173.565 75.9369 173.595C75.9254 173.625 75.9214 173.657 75.9253 173.689C75.9253 173.779 76.0345 173.829 76.1165 173.864C76.368 173.949 76.6316 173.991 76.8969 173.989C77.0288 174.006 77.1629 173.99 77.2871 173.943C77.3204 173.937 77.3523 173.925 77.3809 173.907C77.4095 173.889 77.4343 173.865 77.4538 173.838C77.4734 173.81 77.4874 173.779 77.4949 173.746C77.5024 173.713 77.5034 173.679 77.4978 173.646C77.4921 173.613 77.48 173.581 77.4621 173.552C77.4441 173.524 77.4207 173.499 77.3931 173.479C77.3656 173.46 77.3345 173.446 77.3016 173.438C77.2686 173.431 77.2345 173.43 77.2012 173.435ZM82.0007 173.79C81.9769 174.081 82.0336 174.373 82.1646 174.633C82.2192 174.75 82.3011 174.879 82.4299 174.895C82.5587 174.91 82.6991 174.762 82.7187 174.618C82.7225 174.47 82.7028 174.322 82.6601 174.181C82.6443 174.048 82.6155 173.917 82.5743 173.79C82.4533 173.533 82.0475 173.408 82.0007 173.79ZM81.392 178.016C81.3505 178.084 81.3239 178.16 81.3139 178.239C81.2866 178.387 81.2632 178.539 81.2476 178.687C81.226 178.767 81.226 178.85 81.2476 178.929C81.3054 179.015 81.3908 179.078 81.4895 179.109C81.5232 179.129 81.5616 179.139 81.6007 179.139C81.6399 179.139 81.6783 179.129 81.7119 179.109C81.7332 179.087 81.7504 179.062 81.7627 179.035C81.7945 178.976 81.8169 178.913 81.829 178.847C81.8387 178.788 81.8387 178.727 81.829 178.668C81.7978 178.477 81.7705 178.278 81.7393 178.102C81.708 177.926 81.5168 177.837 81.392 178.016ZM95.9503 151.623C95.89 151.799 95.89 151.99 95.9503 152.166C96.0152 152.339 96.1003 152.504 96.204 152.657C96.2444 152.733 96.2956 152.803 96.3561 152.864C96.3879 152.893 96.4256 152.916 96.4666 152.929C96.5077 152.943 96.5512 152.947 96.5942 152.942C96.6604 152.921 96.7186 152.88 96.7611 152.825C96.8036 152.77 96.8284 152.703 96.8322 152.634C96.8476 152.383 96.7819 152.134 96.6449 151.924C96.5591 151.752 96.0986 151.206 95.9503 151.623ZM76.2491 180.876C76.2357 180.903 76.2297 180.933 76.2318 180.963C76.234 180.993 76.2442 181.022 76.2613 181.047C76.2785 181.072 76.302 181.091 76.3294 181.104C76.3567 181.117 76.387 181.121 76.4169 181.118C76.4694 181.106 76.5175 181.079 76.556 181.041C76.5945 181.004 76.622 180.956 76.6354 180.904C76.7408 180.603 76.3428 180.724 76.2491 180.876ZM94.2179 156.692H94.1086C93.9993 156.692 93.8745 156.692 93.8198 156.797C93.8004 156.841 93.7949 156.89 93.8039 156.938C93.813 156.985 93.8362 157.029 93.8706 157.063C93.8908 157.089 93.9167 157.11 93.9465 157.125C93.9762 157.14 94.009 157.148 94.0423 157.148C94.132 157.148 94.1905 157.055 94.2647 157.012C94.3388 156.969 94.4715 156.934 94.4676 156.825C94.4637 156.715 94.3076 156.692 94.2179 156.692ZM103.86 153.941C103.817 153.914 103.762 153.941 103.719 153.972L103.524 154.105C103.489 154.126 103.46 154.156 103.438 154.191C103.433 154.199 103.429 154.209 103.427 154.219C103.426 154.229 103.426 154.239 103.429 154.249C103.431 154.259 103.436 154.269 103.442 154.277C103.449 154.285 103.457 154.291 103.466 154.296C103.501 154.316 103.54 154.296 103.575 154.273C103.61 154.249 103.981 154.015 103.86 153.941ZM100.336 150.761C100.326 150.995 100.39 151.225 100.52 151.42C100.587 151.515 100.685 151.584 100.797 151.616C100.909 151.648 101.029 151.641 101.136 151.596C101.185 151.568 101.228 151.53 101.261 151.484C101.294 151.438 101.317 151.386 101.327 151.331C101.34 151.185 101.312 151.039 101.245 150.909C101.156 150.683 101.011 150.343 100.754 150.258C100.496 150.172 100.328 150.535 100.336 150.761ZM106.076 149.013C106.058 148.998 106.038 148.984 106.018 148.974C105.744 148.833 105.421 148.798 105.155 148.646C105.046 148.584 104.937 148.502 104.816 148.529C104.756 148.549 104.706 148.589 104.674 148.643C104.641 148.696 104.629 148.76 104.64 148.822C104.665 148.945 104.737 149.053 104.839 149.126C105.042 149.289 105.298 149.369 105.557 149.352C105.659 149.344 106.267 149.22 106.076 149.013ZM88.7433 173.849C88.7121 173.943 88.7121 174.044 88.7433 174.138C88.786 174.3 88.8531 174.456 88.9423 174.598C88.9814 174.661 89.036 174.731 89.1101 174.731C89.1843 174.731 89.2506 174.629 89.2584 174.543C89.2627 174.441 89.2467 174.339 89.2116 174.243C89.1804 174.122 88.9345 173.361 88.7433 173.849ZM84.8296 168.449C84.7306 168.421 84.6282 168.406 84.5253 168.406H84.0609C84.0007 168.398 83.9395 168.402 83.8811 168.419C83.8227 168.436 83.7684 168.465 83.7215 168.503C83.6767 168.57 83.6555 168.649 83.6612 168.729C83.6668 168.809 83.699 168.885 83.7527 168.944C83.8397 169.05 83.9423 169.142 84.057 169.217C84.1887 169.316 84.3348 169.394 84.4902 169.447C84.6478 169.499 84.8194 169.49 84.9701 169.42C85.0575 169.364 85.127 169.285 85.1702 169.19C85.2134 169.096 85.2285 168.992 85.2137 168.889C85.1988 168.786 85.1547 168.69 85.0866 168.612C85.0185 168.534 84.9293 168.477 84.8296 168.449ZM107.492 146.16C107.443 146.135 107.386 146.128 107.332 146.141C107.302 146.153 107.275 146.171 107.253 146.195C107.231 146.219 107.214 146.247 107.204 146.277C107.165 146.382 107.165 146.497 107.204 146.601C107.239 146.704 107.286 146.802 107.344 146.894L107.446 147.066C107.475 147.12 107.508 147.172 107.543 147.222C107.608 147.308 107.691 147.38 107.785 147.432C107.851 147.471 107.941 147.495 107.996 147.432C108.011 147.413 108.022 147.39 108.029 147.366C108.035 147.342 108.035 147.317 108.031 147.292C107.978 147.082 107.899 146.878 107.797 146.687C107.727 146.488 107.73 146.262 107.492 146.16ZM91.6386 171.137C91.5192 171.159 91.4018 171.19 91.2875 171.231C91.2151 171.239 91.1483 171.274 91.1002 171.328C91.0903 171.352 91.0854 171.377 91.0858 171.402C91.0862 171.428 91.0919 171.453 91.1026 171.476C91.1132 171.499 91.1286 171.52 91.1476 171.537C91.1667 171.554 91.1891 171.566 91.2133 171.574C91.3137 171.605 91.4212 171.605 91.5216 171.574L91.7635 171.512C92.0913 171.402 91.9079 171.114 91.6386 171.137ZM92.7312 167.75C92.7021 167.728 92.6665 167.715 92.6297 167.715C92.6122 167.72 92.596 167.728 92.5821 167.74C92.5681 167.751 92.5569 167.766 92.5491 167.782C92.5413 167.798 92.5371 167.816 92.5369 167.834C92.5367 167.852 92.5404 167.87 92.5478 167.887C92.5846 167.952 92.6423 168.003 92.7117 168.031C92.7858 168.074 93.1526 168.292 93.2189 168.136C93.2853 167.98 92.8092 167.785 92.7312 167.75ZM103.146 163.833C103.077 163.532 102.944 163.25 102.755 163.005C102.559 162.698 102.345 162.402 102.116 162.12C102.091 162.084 102.055 162.056 102.014 162.041C101.909 162.014 101.835 162.143 101.815 162.252C101.767 162.618 101.814 162.991 101.952 163.333C102.023 163.576 102.158 163.796 102.342 163.969C102.564 164.164 103.22 164.328 103.146 163.833ZM89.4418 156.668C89.324 156.842 89.2503 157.041 89.2272 157.25C89.2168 157.355 89.2419 157.46 89.2984 157.55C89.355 157.639 89.4398 157.706 89.5394 157.742C89.6741 157.764 89.8123 157.737 89.9296 157.667C90.3536 157.436 90.7339 157.132 91.0533 156.77L91.6347 156.185C92.1186 155.697 92.6063 155.205 93.059 154.686C93.2463 154.468 93.574 153.988 93.1916 153.777C92.8756 153.605 92.3839 153.879 92.0991 154.015C91.3749 154.38 90.7375 154.896 90.23 155.529C89.9368 155.887 89.6731 156.268 89.4418 156.668ZM69.2763 170.833C68.4376 170.995 67.6599 171.385 67.0287 171.96C66.867 172.062 66.7334 172.202 66.64 172.368C66.5466 172.535 66.4964 172.722 66.4941 172.912C66.5577 173.12 66.6964 173.297 66.8833 173.408C67.0702 173.519 67.2917 173.557 67.5048 173.513C67.9195 173.406 68.3146 173.233 68.6754 173.002C69.0253 172.859 69.3588 172.678 69.6704 172.464C70.3688 171.914 70.3961 170.669 69.2763 170.833ZM86.6051 174.633C86.6091 174.333 86.5697 174.033 86.488 173.744C86.3826 173.303 86.2539 172.866 86.1251 172.425C86.0978 172.25 86.0361 172.083 85.9437 171.932C85.8513 171.781 85.7299 171.65 85.5866 171.547C85.1691 171.328 84.6502 171.609 84.3614 171.984C84.1258 172.311 83.9452 172.675 83.8268 173.061C83.6462 173.507 83.5407 173.981 83.5147 174.462C83.4897 174.948 83.6548 175.425 83.9751 175.792C84.9623 176.842 86.566 175.917 86.6051 174.633Z" fill="#272B4C"/>
</g>
<path d="M37.3602 137.678C36.5118 137.521 35.6938 137.23 34.937 136.815C34.5136 136.581 34.15 136.252 33.8746 135.854C33.5991 135.456 33.4192 135 33.3489 134.521C33.3318 133.744 33.5217 132.976 33.8991 132.297C34.2112 131.618 34.5975 130.775 35.3623 130.268C35.8943 129.939 36.5087 129.769 37.1338 129.776C38.8429 129.776 40.3764 130.556 41.8162 131.384C42.6035 131.767 43.2834 132.339 43.7946 133.05C44.1864 133.715 44.3176 134.503 44.1626 135.26C44.0077 136.016 43.5776 136.689 42.9556 137.147L42.382 136.32C42.789 136.008 43.0699 135.561 43.1732 135.059C43.2764 134.557 43.195 134.035 42.9439 133.588C42.5148 133.019 41.9554 132.562 41.3129 132.254C40.0057 131.497 38.6283 130.732 37.1651 130.787C36.7317 130.776 36.3042 130.888 35.932 131.111C35.4404 131.434 35.1516 132.004 34.8278 132.718C34.527 133.238 34.3657 133.827 34.3595 134.427C34.4129 134.748 34.5387 135.053 34.7274 135.318C34.916 135.583 35.1625 135.801 35.4482 135.957C36.1192 136.312 36.8401 136.563 37.5865 136.702L37.3602 137.678ZM30.2858 145.259C29.8131 145.063 29.4031 144.741 29.1005 144.328C28.7978 143.916 28.614 143.428 28.569 142.918C28.4973 141.985 28.6879 141.051 29.1191 140.222C29.225 139.964 29.3785 139.728 29.5718 139.527C29.8405 139.275 30.1768 139.107 30.5395 139.043C31.7959 138.762 33.0641 139.289 33.9888 139.671L35.3975 140.253C35.8939 140.432 36.3638 140.677 36.7944 140.983C37.0463 141.161 37.26 141.387 37.4228 141.649C37.5857 141.911 37.6944 142.203 37.7426 142.508C37.7754 143.098 37.6401 143.685 37.3524 144.202L36.4393 143.78C36.6408 143.431 36.7471 143.036 36.7475 142.633C36.6792 142.286 36.4775 141.979 36.1857 141.779C35.8222 141.531 35.4289 141.33 35.0151 141.182L33.6064 140.6C32.5646 140.171 31.6281 139.82 30.7541 140.023C30.5782 140.052 30.4136 140.129 30.278 140.245C30.1751 140.361 30.092 140.493 30.0322 140.635C29.6794 141.304 29.5187 142.058 29.5679 142.813C29.5927 143.138 29.7042 143.451 29.8909 143.718C30.0775 143.986 30.3325 144.199 30.6292 144.334L30.2858 145.259ZM41.149 113.571C36.6149 111.749 34.0786 109.895 30.8672 107.543C29.8722 106.813 28.8031 106.032 27.5778 105.178C26.4559 104.469 25.4369 103.609 24.5499 102.622C23.8718 101.745 23.3056 100.787 22.8642 99.7698C22.0409 98.0412 21.2644 96.258 20.5581 94.4865L21.4946 94.1158C22.1892 95.8717 22.954 97.6276 23.7734 99.3367C24.1819 100.28 24.7062 101.168 25.3342 101.982C26.1678 102.894 27.1191 103.69 28.1631 104.351C29.3962 105.209 30.4731 105.993 31.4759 106.727C34.6288 109.037 37.1182 110.859 41.5353 112.635L41.149 113.571ZM38.1015 126.889C36.9778 126.498 35.8579 126.069 34.7497 125.636C31.671 124.426 28.6197 123.061 25.6737 121.57L25.0923 121.281C23.8338 120.698 22.6321 119.999 21.5024 119.194C20.2348 118.226 19.0815 117.117 18.0648 115.889C16.7038 114.2 15.5933 112.323 14.7676 110.317L15.6924 109.927C16.4797 111.843 17.5389 113.635 18.8374 115.249C19.8053 116.42 20.9037 117.476 22.1111 118.398C23.1917 119.166 24.3412 119.832 25.5449 120.388L26.1263 120.677C29.0551 122.155 32.0497 123.498 35.1009 124.703C36.1961 125.133 37.3029 125.546 38.4215 125.944L38.1015 126.889ZM37.2236 139.375C29.2557 138.595 24.4914 135.297 19.3836 130.213L20.0938 129.503C25.0415 134.427 29.6498 137.631 37.3211 138.372L37.2236 139.375ZM33.0602 88.0131C32.5841 87.4629 31.6437 87.4161 30.8009 87.4122H29.8527V86.4055H30.8048C31.87 86.4055 33.0719 86.4796 33.821 87.3576L33.0602 88.0131ZM48.4653 111.597L47.7785 110.863C48.4457 110.239 48.3638 109.111 47.9502 108.362C47.4429 107.453 46.5104 106.801 45.6714 106.29C44.9847 105.861 44.2706 105.447 43.5565 105.065C42.9946 104.764 42.3391 104.456 41.7772 104.577C41.5213 104.65 41.2855 104.781 41.088 104.96C40.8905 105.138 40.7365 105.36 40.6378 105.607C40.3998 106.194 40.2512 106.814 40.1969 107.445L39.9316 109.396L38.9366 109.259L39.2019 107.308C39.2691 106.568 39.4507 105.843 39.7404 105.158C39.9064 104.773 40.1583 104.43 40.4767 104.156C40.7952 103.882 41.1719 103.685 41.5782 103.578C42.4796 103.383 43.3224 103.777 44.0404 104.16C44.7584 104.542 45.5114 104.979 46.2177 105.424C47.2322 106.056 48.2506 106.793 48.8398 107.859C49.429 108.924 49.5149 110.598 48.4653 111.597ZM45.8353 112.767C44.7273 112.707 43.6381 112.454 42.6162 112.022L40.8993 111.398L41.2466 110.453L42.9595 111.078C44.376 111.593 45.6441 111.991 46.8069 111.62L47.1152 112.58C46.7005 112.707 46.2689 112.77 45.8353 112.767ZM44.0326 124.727L43.2522 124.126C43.4807 123.848 43.6484 123.525 43.7445 123.178C43.8406 122.832 43.863 122.469 43.8102 122.113C43.6385 121.149 42.8347 120.13 41.6016 119.315C41.0124 118.925 40.3959 118.558 39.7716 118.226C39.2214 117.934 38.601 117.653 38.082 117.836C37.6606 117.969 37.3016 118.394 36.97 119.174C36.4967 120.267 36.1827 121.422 36.0374 122.604L35.0385 122.483C35.1978 121.205 35.5381 119.955 36.0491 118.772C36.3378 118.105 36.8295 117.177 37.7738 116.876C38.6478 116.599 39.5102 116.962 40.2437 117.352C40.8954 117.703 41.5392 118.086 42.1518 118.492C43.0142 119.057 44.493 120.263 44.8013 121.953C44.8744 122.443 44.8438 122.943 44.7114 123.421C44.579 123.899 44.3477 124.344 44.0326 124.727ZM45.5622 81.1027C45.0627 81.1027 44.5515 81.1027 44.0014 81.0481C42.6747 80.9622 40.8056 80.6813 39.877 79.2337L40.7276 78.6913C41.2427 79.499 42.2884 79.9321 44.0677 80.0453C45.5865 80.1696 47.1151 80.0922 48.6135 79.8151C49.2261 79.6941 49.5695 79.5068 49.671 79.2493C49.7216 79.0205 49.7216 78.7835 49.671 78.5547L49.4291 76.9432L50.4241 76.791L50.666 78.4064C50.7547 78.8059 50.7372 79.2216 50.6153 79.6121C50.268 80.5135 49.1754 80.7281 48.8164 80.8023C47.7441 81.0083 46.6541 81.1089 45.5622 81.1027Z" fill="#E7A577"/>
<path d="M16.8135 23.0686L18.6773 22.0692L32.8569 48.5138L30.993 49.5132L16.8135 23.0686Z" fill="#305E50"/>
<path d="M54.2676 13.4033H56.3825V44.4319H54.2676V13.4033Z" fill="#305E50"/>
<path d="M77.8027 48.7969L91.973 22.3473L93.8372 23.3461L79.6669 49.7956L77.8027 48.7969Z" fill="#305E50"/>
</svg>
