<svg width="25" height="24" viewBox="0 0 25 24" fill="none" xmlns="http://www.w3.org/2000/svg">
<circle cx="12.5" cy="12" r="12" fill="#F9FAFB"/>
<g clip-path="url(#clip0_71_2357)">
<path d="M22.0339 12.1871C22.0339 11.3677 21.9674 10.7697 21.8235 10.1497H12.4668V13.848H17.959C17.8483 14.7671 17.2503 16.1512 15.9215 17.0813L15.9029 17.2051L18.8613 19.4969L19.0663 19.5174C20.9487 17.7789 22.0339 15.221 22.0339 12.1871Z" fill="#4285F4"/>
<path d="M12.4662 21.9313C15.1569 21.9313 17.4158 21.0455 19.0657 19.5174L15.9209 17.0813C15.0794 17.6682 13.9499 18.0779 12.4662 18.0779C9.83084 18.0779 7.59411 16.3395 6.79678 13.9367L6.6799 13.9466L3.60371 16.3273L3.56348 16.4391C5.20226 19.6945 8.56846 21.9313 12.4662 21.9313Z" fill="#34A853"/>
<path d="M6.79726 13.9368C6.58687 13.3167 6.46512 12.6523 6.46512 11.9658C6.46512 11.2792 6.58688 10.6149 6.78619 9.99481L6.78062 9.86275L3.66587 7.44382L3.56396 7.49229C2.88854 8.84321 2.50098 10.3602 2.50098 11.9658C2.50098 13.5714 2.88854 15.0883 3.56396 16.4392L6.79726 13.9368Z" fill="#FBBC05"/>
<path d="M12.4662 5.85336C14.3375 5.85336 15.5998 6.66168 16.3196 7.33718L19.1321 4.59107C17.4048 2.9855 15.1569 2 12.4662 2C8.56846 2 5.20226 4.23672 3.56348 7.49214L6.78571 9.99466C7.59411 7.59183 9.83084 5.85336 12.4662 5.85336Z" fill="#EB4335"/>
</g>
<defs>
<clipPath id="clip0_71_2357">
<rect width="19.5441" height="20" fill="white" transform="translate(2.5 2)"/>
</clipPath>
</defs>
</svg>
