<svg width="172" height="40" viewBox="0 0 172 40" fill="none" xmlns="http://www.w3.org/2000/svg">
<path fill-rule="evenodd" clip-rule="evenodd" d="M19.2319 39.2C29.8533 39.2 38.4637 30.6038 38.4637 20C38.4637 9.39612 29.8533 0.799988 19.2319 0.799988C8.61038 0.799988 0 9.39612 0 20C0 30.6038 8.61038 39.2 19.2319 39.2ZM25.2315 9.74415C25.5236 8.70851 24.5169 8.09611 23.5975 8.75003L10.7632 17.878C9.76614 18.5871 9.92298 20 10.9988 20H14.3784V19.9738H20.9651L15.5982 21.8644L13.2322 30.2558C12.9402 31.2915 13.9468 31.9039 14.8662 31.2499L27.7005 22.122C28.6976 21.4129 28.5407 20 27.4649 20H22.3398L25.2315 9.74415Z" fill="#F55B23"/>
<path d="M53.6463 29H57.1692V20.0646H62.6778L66.8733 29.032H70.7164L66.2647 19.6803C68.987 18.7515 70.6204 16.3815 70.6204 13.307C70.6204 9.39976 67.8981 6.58142 63.6386 6.58142H53.6463V29ZM57.1692 16.6698V9.97624H63.4144C65.7203 9.97624 67.0974 11.2573 67.0974 13.307C67.0974 15.3887 65.7203 16.6698 63.4144 16.6698H57.1692ZM78.8089 13.0188C74.2291 13.0188 71.1225 16.6378 71.1225 21.2816C71.1225 25.9575 74.2611 29.4804 78.969 29.4804C82.62 29.4804 85.6946 27.1104 86.207 23.7476L82.9403 23.1391C82.6521 25.0607 81.0507 26.3418 79.0331 26.3418C76.567 26.3418 74.8056 24.7405 74.4213 22.0823H85.7907V20.4489C85.7907 16.0933 83.0044 13.0188 78.8089 13.0188ZM74.5814 19.328C75.1258 17.3744 76.7272 16.0613 78.8089 16.0613C80.9867 16.0613 82.524 17.5025 82.62 19.328H74.5814ZM87.2727 23.5875C87.5929 25.349 88.3936 26.7902 89.6746 27.8791C90.9557 28.9359 92.493 29.4804 94.3185 29.4804C98.0336 29.4804 100.692 27.3666 100.692 24.2601C100.692 21.2816 98.578 19.5842 94.3825 19.1679C92.3649 18.9437 91.7884 18.4633 91.7884 17.5986C91.7884 16.7338 92.6851 16.2534 94.0623 16.2534C95.5675 16.2534 96.6244 17.0541 97.0087 18.5914L100.019 17.6626C99.2506 14.8122 96.8486 12.9867 94.0623 12.9867C90.7956 12.9867 88.2975 14.9404 88.2975 17.5986C88.2975 20.4169 90.2511 22.1783 93.9982 22.5627C96.4322 22.8189 97.2649 23.4274 97.2649 24.4202C97.2649 25.4771 96.2081 26.2457 94.3185 26.2457C92.2688 26.2457 90.9237 24.9967 90.5714 22.947L87.2727 23.5875ZM116.281 13.4992H112.758V21.8901C112.758 24.6124 111.349 26.3098 109.171 26.3098C107.153 26.3098 106.16 25.1568 106.16 22.8189V13.4992H102.637V23.4914C102.637 27.2065 104.623 29.4804 108.05 29.4804C110.036 29.4804 111.605 28.7758 112.758 27.3666V29H116.281V13.4992ZM119.23 29H122.625V20.3208C122.625 17.5986 123.714 16.1894 125.475 16.1894C127.108 16.1894 127.845 17.0541 127.845 19.1038V29H131.176L131.08 19.8084C131.24 17.3744 132.265 16.1894 133.93 16.1894C135.499 16.1894 136.236 17.0541 136.236 19.1038V29H139.663L139.599 18.2711C139.599 14.7802 137.965 13.0188 135.019 13.0188C133.065 13.0188 131.56 14.0116 130.663 15.709C130.023 13.9155 128.582 13.0188 126.5 13.0188C124.803 13.0188 123.489 13.8194 122.625 15.2606V13.5312H119.23V29ZM141.2 29H145.043L147.477 23.011H157.373L159.775 29H163.651L154.491 6.58142H150.36L141.2 29ZM148.822 19.6483L152.409 10.7449L155.996 19.6483H148.822ZM165.368 29H168.891V6.58142H165.368V29Z" fill="white"/>
</svg>
