<svg width="199" height="150" viewBox="0 0 199 150" fill="none" xmlns="http://www.w3.org/2000/svg">
<path d="M163.05 34.0353L173.573 33.9869C173.895 34.0146 181.588 34.4984 185.804 28.3639C189.122 23.5254 188.728 16.8863 185.113 12.5904C181.968 8.86481 177.53 8.26346 176.352 8.13904L94.789 8.27382C92.5427 8.25958 90.3406 8.89835 88.4506 10.1125C84.2515 12.8773 83.5257 18.5245 83.1905 21.2202C82.0258 30.3684 79.5581 59.4443 77.0456 98.7017C76.7676 101.187 76.1381 103.62 75.1759 105.928C74.7539 106.935 74.2691 107.914 73.7243 108.859H65.9067C61.8977 112.032 60.2768 116.863 61.7249 120.693C62.7272 123.337 64.9114 124.753 65.9067 125.31L137.896 128.275C142.102 128.362 149.53 127.857 153.739 122.746C155.146 120.981 156.096 118.896 156.504 116.677C159.324 103.298 162.856 37.6711 163.05 34.0353Z" fill="#FFCCA8"/>
<path d="M73.623 109.249L73.6727 108.013L131.857 110.35L131.807 111.586L73.623 109.249Z" fill="#4C2734"/>
<path d="M133.698 127.021C129.896 124.214 128.089 120.039 129.088 116.383C129.216 115.906 130.47 111.703 134.213 110.95C135.213 110.75 136.246 110.806 137.218 111.113C138.19 111.419 139.069 111.966 139.774 112.702C141.848 114.897 141.329 117.748 141.205 118.298C140.975 119.222 140.55 120.086 139.959 120.832C139.368 121.579 138.623 122.19 137.776 122.625L137.648 122.69H131.351C132.151 123.992 133.197 125.124 134.431 126.025L133.698 127.021ZM130.719 121.456H137.351C138.006 121.099 138.579 120.61 139.035 120.02C139.491 119.43 139.821 118.751 140.002 118.028C140.099 117.586 140.517 115.291 138.872 113.535C138.311 112.952 137.613 112.519 136.841 112.277C136.069 112.036 135.248 111.993 134.455 112.153C131.434 112.758 130.387 116.3 130.277 116.697C129.883 118.288 130.039 119.966 130.719 121.456ZM163.973 32.6702H162.739C162.853 20.3908 166.679 11.5641 172.724 9.63902C173.794 9.30353 174.917 9.17337 176.035 9.2554L175.955 10.4892C174.991 10.4256 174.022 10.5428 173.101 10.8348C167.661 12.5352 164.08 21.1166 163.973 32.6702Z" fill="#4C2734"/>
<path d="M178.07 33.2611C176.473 32.8928 175.035 32.0233 173.967 30.7797C171.825 28.1531 171.825 23.9643 173.881 20.2871H165.265V19.0498H176.148L175.495 20.014C173.169 23.4701 172.934 27.5586 174.925 29.9986C175.825 31.0426 177.036 31.7696 178.381 32.0722L178.07 33.2611ZM93.6141 20.6327H153.141V21.8665H93.6141V20.6327ZM92.3457 34.8924H150.998V36.1262H92.3457V34.8924ZM113.096 49.1556H149.965V50.3894H113.096V49.1556Z" fill="#4C2734"/>
<path d="M113.085 77.5942L113.127 76.3611L148.963 77.5687L148.921 78.8018L113.085 77.5942Z" fill="#4C2734"/>
<path d="M91.3701 91.0079L91.4174 89.7716L145.047 91.8224L145 93.0588L91.3701 91.0079Z" fill="#4C2734"/>
<path d="M108.175 53.7867L93.2482 57.4225L12.8603 104.425C10.2337 105.963 9.62195 108.486 10.8074 110.518C11.9928 112.55 14.5399 113.321 17.1631 111.786L97.551 64.7839C101.09 61.1182 104.631 57.4524 108.175 53.7867Z" fill="#F83C17"/>
<path d="M97.8758 64.4417L93.7043 57.3119L93.2412 57.4225L92.8438 57.654L97.15 65.012L97.544 64.7839L97.8758 64.4417Z" fill="#4C2734"/>
<path d="M74.3438 68.4678L75.1343 68.0055L79.4386 75.3654L78.648 75.8277L74.3438 68.4678Z" fill="#4C2734"/>
<path d="M76.0439 67.4788L77.2283 66.7861L81.5326 74.146L80.3482 74.8387L76.0439 67.4788Z" fill="#4C2734"/>
<path d="M104.121 54.7717L108.175 53.7867L105.244 56.8176L104.121 54.7717Z" fill="#4C2734"/>
<path d="M76.4582 51.3744L77.1495 51.7822C80.1389 53.5102 83.2459 55.2382 86.664 55.7394C88.0706 55.9502 89.6949 56.0539 90.5313 57.2013C90.8023 57.619 90.9615 58.0992 90.9935 58.5961C91.0256 59.0929 90.9295 59.5897 90.7145 60.0387C90.2711 60.9325 89.606 61.6976 88.7825 62.261C86.5185 63.9649 83.7205 64.8044 80.8924 64.6284L72.6428 69.4669C71.8168 69.2975 71.0011 69.142 70.1855 68.9415C69.5723 69.8454 68.74 70.5791 67.7663 71.0739C66.7813 71.582 65.5406 71.6822 64.6212 71.7962C64.3655 71.8273 64.1547 71.8481 64.0095 71.8584C63.637 72.8848 63.1452 73.8638 62.5442 74.7754C62.2919 75.1555 62.0361 75.5046 61.7804 75.8122L32.8117 92.7469C32.6251 88.3715 32.4384 84.8947 32.314 82.7001C31.9373 76.0403 31.7541 74.4056 32.2656 71.6165C32.7633 68.8931 33.0467 65.8622 35.4106 63.4084C37.4532 61.2898 40.0901 59.6067 42.3884 57.7612C43.8814 56.5688 45.3468 55.3419 46.8122 54.1254C49.6876 51.7269 52.6184 49.2869 55.6113 47.1027C58.3761 45.0947 62.2262 42.5441 65.5924 44.7076C69.1637 47.0117 72.7856 49.2339 76.4582 51.3744ZM85.5788 90.4002C84.3278 91.8774 83.1844 93.4424 82.1573 95.0832C80.7092 97.3711 79.23 99.6521 78.0619 102.102C77.0794 104.285 76.285 106.548 75.6875 108.866C75.2833 110.273 74.7404 111.637 74.0667 112.937C73.5451 113.925 72.9682 114.883 72.3386 115.806C69.4252 120.195 65.5959 124.335 61.0339 127.041C60.4014 127.415 59.7309 127.733 59.1227 128.134C58.154 128.853 57.2969 129.711 56.579 130.681C54.2151 133.622 52.0861 136.743 49.7671 139.725C48.516 141.339 47.0783 141.982 45.0254 141.864C41.2237 141.65 37.664 140.057 34.2529 138.377C29.0238 135.799 23.7948 132.848 20.083 128.355C19.5301 127.663 18.9909 126.855 18.9702 125.935C18.9494 125.016 19.6614 124.159 20.1556 123.43C22.8893 119.524 27.4375 112.402 29.8602 107.902C30.4443 106.813 31.291 105.137 32.1827 103.025L73.4791 78.7567L73.8455 78.4664C76.047 76.7384 76.7347 76.5345 77.6886 75.7569C78.9431 74.7201 79.6447 73.4759 81.0479 70.9633C81.6769 69.8401 81.549 69.9265 81.9672 69.2353C82.976 67.6133 84.2836 66.1978 85.8207 65.0638C87.2861 63.9164 88.7342 62.8208 90.5417 62.3474C92.3492 61.8739 94.7754 61.9326 96.4654 62.7275C97.157 63.0552 97.7722 63.5242 98.2713 64.1043C98.7705 64.6844 99.1425 65.3627 99.3633 66.0954C99.5841 66.8281 99.6488 67.599 99.5532 68.3583C99.4577 69.1176 99.204 69.8485 98.8086 70.5037C98.539 70.946 98.2038 71.3504 97.948 71.8031C97.5442 72.602 97.2634 73.4572 97.1151 74.3399L96.6174 76.5621C96.3133 77.91 96.0195 79.1438 95.273 80.312C94.5446 81.4149 93.71 82.444 92.7812 83.3844C90.9149 85.3164 88.8067 86.9925 86.937 88.9141C86.467 89.4003 86.0142 89.8956 85.5788 90.4002Z" fill="#76A566"/>
<mask id="mask0_142_963" style="mask-type:luminance" maskUnits="userSpaceOnUse" x="18" y="62" width="82" height="80">
<path d="M85.5788 90.4001C84.3278 91.8773 83.1844 93.4423 82.1573 95.0831C80.7092 97.371 79.23 99.652 78.0619 102.102C77.0794 104.285 76.285 106.548 75.6875 108.866C75.2833 110.273 74.7404 111.637 74.0667 112.937C73.5451 113.925 72.9682 114.883 72.3386 115.806C69.4252 120.195 65.5959 124.335 61.0339 127.041C60.4014 127.415 59.7309 127.732 59.1227 128.133C58.154 128.853 57.2969 129.711 56.579 130.68C54.2151 133.622 52.0861 136.742 49.7671 139.725C48.516 141.339 47.0783 141.982 45.0254 141.864C41.2237 141.65 37.664 140.057 34.2529 138.377C29.0238 135.799 23.7948 132.847 20.083 128.355C19.5301 127.663 18.9909 126.855 18.9702 125.935C18.9494 125.016 19.6614 124.159 20.1556 123.43C22.8893 119.524 27.4375 112.401 29.8602 107.902C30.4443 106.813 31.291 105.137 32.1827 103.025L73.4791 78.7566L73.8455 78.4663C76.047 76.7383 76.7347 76.5344 77.6886 75.7568C78.9431 74.7199 79.6447 73.4758 81.0479 70.9632C81.6769 69.84 81.549 69.9264 81.9672 69.2352C82.976 67.6132 84.2836 66.1976 85.8207 65.0637C87.2861 63.9163 88.7342 62.8207 90.5417 62.3472C92.3492 61.8738 94.7754 61.9325 96.4654 62.7274C97.157 63.055 97.7722 63.524 98.2713 64.1041C98.7705 64.6842 99.1425 65.3625 99.3633 66.0953C99.5841 66.828 99.6488 67.5989 99.5532 68.3582C99.4577 69.1175 99.204 69.8483 98.8086 70.5035C98.539 70.9459 98.2038 71.3503 97.948 71.803C97.5442 72.6018 97.2634 73.4571 97.1151 74.3398L96.6174 76.562C96.3133 77.9099 96.0195 79.1437 95.273 80.3118C94.5446 81.4148 93.71 82.4438 92.7812 83.3843C90.9149 85.3162 88.8067 86.9924 86.937 88.914C86.467 89.4001 86.0142 89.8955 85.5788 90.4001Z" fill="white"/>
</mask>
<g mask="url(#mask0_142_963)">
<g opacity="0.7">
<path d="M21.5482 118.374L21.4652 118.239C21.4125 118.18 21.3754 118.109 21.3573 118.033C21.3392 117.956 21.3407 117.876 21.3616 117.8C21.3987 117.744 21.451 117.701 21.5124 117.675C21.5737 117.648 21.6414 117.64 21.7072 117.651C21.757 117.655 21.8053 117.67 21.848 117.696C21.8907 117.722 21.9266 117.757 21.9525 117.8C22.0113 117.911 21.9525 118.049 21.9525 118.177C21.9525 118.305 22.0251 118.495 21.8869 118.578C21.7486 118.661 21.6208 118.488 21.5482 118.374ZM28.6331 121.356C28.6383 121.296 28.6523 121.236 28.6746 121.18C28.6983 121.128 28.7337 121.082 28.7781 121.046C28.8225 121.01 28.8746 120.985 28.9303 120.973C28.9855 120.96 29.0431 120.96 29.0979 120.975C29.1528 120.989 29.2032 121.017 29.2448 121.056C29.2769 121.084 29.3018 121.119 29.3174 121.159C29.3286 121.22 29.3261 121.283 29.31 121.343C29.2938 121.402 29.2645 121.458 29.2241 121.505C29.1481 121.619 28.9994 121.851 28.8301 121.83C28.6608 121.809 28.6158 121.508 28.6331 121.356ZM28.3393 126.672C28.2993 126.652 28.2664 126.621 28.2453 126.582C28.2242 126.543 28.216 126.498 28.2218 126.454C28.2426 126.343 28.3635 126.292 28.4672 126.254L29.4073 125.908C29.5733 125.839 29.7475 125.791 29.9257 125.766C30.106 125.739 30.2898 125.781 30.4406 125.884C30.5147 125.935 30.5715 126.008 30.6035 126.093C30.6356 126.177 30.6415 126.269 30.6203 126.357C30.5659 126.464 30.482 126.554 30.3786 126.615C30.2751 126.676 30.1564 126.707 30.0363 126.703C29.7352 126.713 29.4338 126.703 29.1342 126.672C28.8958 126.679 28.5502 126.796 28.3393 126.672ZM25.889 132.409C25.8199 132.378 25.813 132.288 25.813 132.215V131.87C25.8104 131.809 25.8222 131.749 25.8475 131.693C25.8622 131.667 25.8863 131.647 25.9152 131.637C25.944 131.627 25.9753 131.629 26.003 131.642C26.0251 131.66 26.0421 131.683 26.0524 131.71C26.0627 131.736 26.0659 131.765 26.0618 131.794C26.0687 131.89 26.0791 132.499 25.889 132.409ZM36.3436 109.633C36.2538 109.786 36.128 109.914 35.9772 110.007C35.9008 110.051 35.8117 110.069 35.724 110.057C35.6364 110.045 35.5552 110.004 35.4934 109.941C35.4232 109.84 35.3925 109.717 35.407 109.595C35.4338 109.19 35.5309 108.792 35.6938 108.42C35.7733 108.206 35.8528 107.988 35.9358 107.77C36.1362 107.228 36.3367 106.685 36.5751 106.157C36.6719 105.932 36.9207 105.514 37.2214 105.731C37.4633 105.911 37.4322 106.381 37.4253 106.647C37.4019 107.329 37.2334 107.999 36.9311 108.61C36.7637 108.967 36.5672 109.309 36.3436 109.633ZM47.6138 113.39C47.8241 113.701 47.9601 114.055 48.0112 114.427C48.0307 114.614 47.9988 114.803 47.9191 114.974C47.8393 115.144 47.7147 115.29 47.5585 115.395C47.451 115.461 47.324 115.49 47.1983 115.475C47.0726 115.459 46.9559 115.402 46.8673 115.312C46.7635 115.14 46.7255 114.936 46.7601 114.738L46.8016 113.995C46.8042 113.79 46.8332 113.587 46.888 113.39C47.0504 112.941 47.3995 113.038 47.6138 113.39ZM44.2372 127.235C44.4781 127.163 44.7261 127.116 44.9768 127.097C45.5747 127 46.1484 126.73 46.7498 126.751C46.9105 126.753 47.0679 126.797 47.206 126.879C47.2747 126.92 47.3318 126.979 47.3717 127.048C47.4117 127.118 47.4331 127.196 47.4341 127.277C47.4133 127.385 47.367 127.486 47.2991 127.573C47.2311 127.659 47.1435 127.728 47.0435 127.774C46.4782 128.081 45.8646 128.289 45.2291 128.389C44.9249 128.474 44.6051 128.484 44.296 128.42C44.1621 128.394 44.041 128.323 43.9519 128.22C43.8627 128.117 43.8106 127.987 43.8039 127.851C43.7971 127.714 43.8361 127.58 43.9146 127.468C43.9931 127.357 44.1067 127.275 44.2372 127.235ZM32.6767 130.034C32.8514 130.731 32.8299 131.461 32.6145 132.146C32.5315 132.454 32.3829 132.799 32.0753 132.889C31.8949 132.915 31.7115 132.872 31.5612 132.769C31.4109 132.666 31.3045 132.51 31.2632 132.333C31.1927 131.973 31.1811 131.604 31.2286 131.241C31.2151 130.924 31.2348 130.606 31.2874 130.294C31.4671 129.582 32.4106 129.119 32.6767 130.034ZM23.646 118.156C23.8748 118.05 24.1165 117.975 24.3649 117.931C24.7416 117.859 25.1183 117.8 25.4985 117.741C25.7884 117.659 26.099 117.695 26.3625 117.841C26.677 118.083 26.6424 118.578 26.4592 118.93C26.2936 119.226 26.0812 119.493 25.8302 119.722C25.5553 120.014 25.2357 120.262 24.8833 120.454C24.5211 120.646 24.0984 120.69 23.7048 120.575C22.5401 120.192 22.6852 118.654 23.646 118.156ZM26.8843 112.543C27.2227 112.451 27.5779 112.441 27.9212 112.512C28.0925 112.55 28.2499 112.634 28.3758 112.756C28.5016 112.878 28.5907 113.033 28.6331 113.203C28.6576 113.316 28.6432 113.434 28.5924 113.537C28.5416 113.641 28.4573 113.724 28.3532 113.774C28.1724 113.814 27.9833 113.787 27.8209 113.698L27.1816 113.435C27.0034 113.374 26.8347 113.288 26.6804 113.179C26.321 112.899 26.5111 112.623 26.8843 112.543ZM37.9783 119.663C37.9856 119.429 38.0193 119.198 38.0785 118.972C38.1753 118.422 38.1096 117.838 38.3204 117.32C38.3704 117.179 38.4562 117.054 38.5693 116.957C38.6263 116.91 38.6941 116.878 38.7665 116.864C38.839 116.85 38.9137 116.855 38.984 116.877C39.073 116.928 39.1485 116.999 39.2039 117.085C39.2592 117.171 39.2929 117.269 39.302 117.371C39.4038 117.958 39.4038 118.558 39.302 119.144C39.2872 119.436 39.2018 119.719 39.0531 119.97C38.9954 120.091 38.8967 120.188 38.7745 120.243C38.6522 120.298 38.5144 120.308 38.3855 120.271C38.2566 120.235 38.145 120.153 38.0704 120.042C37.9959 119.93 37.9632 119.796 37.9783 119.663ZM36.9415 130.619C37.6026 130.678 38.2349 130.917 38.7697 131.31C39.0151 131.479 39.2743 131.711 39.2605 132.001C39.2257 132.166 39.1316 132.313 38.9959 132.414C38.8603 132.514 38.6926 132.562 38.5243 132.547C38.1896 132.501 37.8649 132.399 37.5636 132.246C37.2812 132.161 37.0089 132.045 36.7514 131.901C36.1846 131.541 36.0636 130.581 36.9415 130.619ZM46.6875 130.864C46.8559 130.799 47.036 130.769 47.2163 130.778C47.5619 130.778 47.9075 130.784 48.2531 130.798C48.4401 130.792 48.6249 130.84 48.7854 130.936C48.958 131.098 49.0702 131.314 49.1033 131.548C49.1483 131.721 49.1828 131.935 49.0446 132.049C48.9914 132.09 48.9302 132.12 48.8649 132.136C48.7213 132.186 48.571 132.214 48.419 132.219C48.2788 132.208 48.1412 132.176 48.0112 132.122L46.774 131.7C46.3558 131.559 46.2313 131.082 46.6875 130.864ZM55.0927 120.382C55.1578 120.361 55.2273 120.359 55.2937 120.375C55.36 120.391 55.4207 120.425 55.4694 120.473C55.518 120.521 55.5527 120.581 55.5697 120.647C55.5868 120.713 55.5855 120.783 55.5662 120.848C55.5179 120.961 55.4407 121.058 55.3423 121.131C55.2439 121.204 55.128 121.25 55.0063 121.263C54.284 121.38 54.7091 120.53 55.0927 120.382ZM32.732 117.596C32.8823 117.563 33.0379 117.563 33.1882 117.596C33.5383 117.637 33.8774 117.745 34.187 117.914C34.3406 117.999 34.4745 118.116 34.58 118.257C34.6854 118.397 34.7599 118.558 34.7987 118.73C34.8142 118.793 34.8142 118.86 34.7987 118.923C34.7717 118.986 34.731 119.043 34.6796 119.088C34.6282 119.133 34.5674 119.167 34.5015 119.186C34.2446 119.28 33.9734 119.331 33.6997 119.334C33.5561 119.35 33.4113 119.35 33.2677 119.334C32.7251 119.241 32.0788 118.581 32.3345 117.994C32.3652 117.901 32.4171 117.817 32.4861 117.748C32.5551 117.679 32.6393 117.627 32.732 117.596ZM43.1278 107.097C43.3456 106.97 43.5886 106.892 43.8398 106.868C44.1343 106.812 44.4321 106.773 44.7314 106.754C44.7669 106.748 44.8036 106.754 44.8351 106.772C44.9077 106.817 44.8697 106.934 44.8351 107.007C44.6429 107.24 44.3943 107.421 44.1128 107.532C43.9281 107.623 43.7238 107.665 43.5183 107.656C43.2626 107.632 42.7926 107.328 43.1278 107.097ZM55.0616 111.258C55.0257 111.426 54.9485 111.583 54.8369 111.714C54.7794 111.777 54.7026 111.82 54.6183 111.836C54.534 111.852 54.4468 111.839 54.3704 111.8C54.2795 111.732 54.2158 111.634 54.1907 111.524C54.0925 111.14 54.0609 110.743 54.0973 110.349C54.0973 110.124 54.0973 109.899 54.1215 109.658C54.1423 109.098 54.1595 108.534 54.2183 107.971C54.2425 107.736 54.3462 107.28 54.6849 107.387C54.9648 107.477 55.0789 107.923 55.1549 108.168C55.34 108.805 55.3883 109.474 55.2966 110.131C55.2502 110.513 55.1715 110.889 55.0616 111.258ZM66.6083 111.285C66.9024 111.507 67.1394 111.797 67.2995 112.129C67.3768 112.296 67.4061 112.482 67.3842 112.665C67.3622 112.848 67.2898 113.021 67.1751 113.165C67.0972 113.259 66.9895 113.323 66.87 113.347C66.7505 113.371 66.6264 113.353 66.5184 113.297C66.3692 113.172 66.2719 112.995 66.2454 112.803C66.1797 112.568 66.1175 112.336 66.0553 112.111C65.9952 111.923 65.9603 111.728 65.9516 111.531C65.9516 111.047 66.3041 111.03 66.6083 111.285ZM43.6324 138.827C43.7989 138.997 43.9066 139.216 43.94 139.452C44.0263 139.843 44.0577 140.245 44.0333 140.645C44.0411 140.735 44.0251 140.826 43.9869 140.909C43.9487 140.991 43.8896 141.062 43.8156 141.115C43.6289 141.208 43.4078 141.059 43.2937 140.883C43.1751 140.669 43.0966 140.434 43.0621 140.192C43.0034 139.895 42.6751 138.004 43.6324 138.827ZM45.941 122.994C46.1174 122.825 46.3177 122.681 46.5355 122.569C46.8603 122.383 47.1921 122.224 47.5239 122.048C47.6433 121.966 47.7779 121.908 47.9198 121.879C48.0617 121.85 48.2079 121.85 48.3499 121.878C48.6955 122.003 48.8338 122.469 48.775 122.849C48.7082 123.173 48.5916 123.484 48.4294 123.772C48.2619 124.129 48.0378 124.457 47.7658 124.743C47.4929 125.026 47.1219 125.195 46.729 125.213C45.5401 125.21 45.2049 123.748 45.941 122.994ZM34.4911 136.273C34.7665 136.185 35.0485 136.121 35.3344 136.079C35.4992 136.017 35.681 136.017 35.8459 136.079C35.8937 136.118 35.9328 136.166 35.9606 136.221C35.9884 136.276 36.0042 136.336 36.0072 136.397C36.0101 136.458 36 136.52 35.9776 136.577C35.9552 136.634 35.9209 136.686 35.877 136.729C35.6887 136.895 35.4553 137.001 35.2065 137.033L34.6155 137.168C33.7861 137.354 33.869 136.532 34.4911 136.273ZM28.3635 130.294C28.4036 130.214 28.4661 130.148 28.5432 130.104C28.7091 130.038 28.8889 130.207 28.8889 130.384C28.884 130.561 28.8195 130.731 28.7057 130.867C28.5882 131.044 28.0525 131.904 27.7414 131.655C27.4304 131.407 28.2391 130.511 28.3635 130.294ZM25.5745 130.211C25.6108 130.276 25.6309 130.35 25.6332 130.425C25.6331 130.462 25.6208 130.498 25.5983 130.527C25.5759 130.556 25.5444 130.578 25.5088 130.587C25.4598 130.59 25.4112 130.577 25.3706 130.549C25.2285 130.456 25.1035 130.339 25.0008 130.204L24.8142 129.983C24.6586 129.796 24.5031 129.606 24.358 129.409C24.2992 129.326 24.199 129.15 24.3407 129.087C24.4824 129.025 24.6206 129.146 24.7174 129.202C24.9606 129.353 25.1691 129.555 25.3291 129.793C25.4225 129.925 25.5046 130.065 25.5745 130.211ZM29.2863 126.889C29.4442 126.877 29.6029 126.902 29.7494 126.962C29.8218 126.994 29.8842 127.045 29.9298 127.109C29.9755 127.174 30.0027 127.25 30.0086 127.328C30.0105 127.381 29.9945 127.433 29.9631 127.476C29.9317 127.519 29.8869 127.549 29.8358 127.563C29.7514 127.563 29.6696 127.534 29.6043 127.48L29.3381 127.311C29.2653 127.266 29.1981 127.213 29.1377 127.152C29.0029 127 29.11 126.893 29.2863 126.889ZM33.6271 131.013C33.6518 130.91 33.6865 130.811 33.7308 130.715C33.7876 130.469 33.8711 130.229 33.9796 130C34.014 129.941 34.0628 129.893 34.1213 129.858C34.1511 129.842 34.1843 129.834 34.2181 129.834C34.2519 129.834 34.2851 129.842 34.3149 129.858C34.3504 129.889 34.378 129.927 34.3954 129.97C34.4129 130.014 34.4196 130.061 34.4151 130.107C34.4082 130.377 34.3556 130.643 34.2596 130.895C34.2263 131.023 34.1636 131.141 34.0764 131.241C34.0386 131.285 33.9871 131.315 33.9301 131.326C33.873 131.338 33.8138 131.33 33.762 131.303C33.7102 131.277 33.6687 131.234 33.6442 131.181C33.6197 131.129 33.6137 131.069 33.6271 131.013ZM32.2309 135.823C32.5204 135.906 32.782 136.067 32.9877 136.286C33.0399 136.327 33.0815 136.38 33.1092 136.44C33.1368 136.5 33.1497 136.566 33.1467 136.632C33.1174 136.703 33.0626 136.761 32.993 136.795C32.9234 136.828 32.8439 136.834 32.77 136.812C32.6249 136.762 32.4884 136.69 32.3656 136.598C32.2423 136.537 32.1264 136.463 32.02 136.376C31.8127 136.169 31.8403 135.723 32.2309 135.823ZM36.5578 136.757C36.6389 136.741 36.7222 136.741 36.8032 136.757C36.9553 136.784 37.1108 136.815 37.2629 136.853C37.3468 136.868 37.4247 136.906 37.4875 136.964C37.551 137.05 37.5828 137.155 37.5774 137.261C37.5774 137.344 37.5774 137.441 37.5083 137.482C37.4811 137.495 37.4517 137.502 37.4219 137.503C37.3531 137.513 37.2832 137.513 37.2145 137.503C37.1535 137.486 37.0952 137.461 37.0417 137.427L36.5267 137.13C36.3505 137.04 36.3367 136.815 36.5578 136.757ZM38.9563 139.801C39.1493 139.81 39.3335 139.884 39.4782 140.012C39.6231 140.139 39.7529 140.281 39.8653 140.437C39.924 140.504 39.9718 140.58 40.007 140.662C40.0265 140.702 40.0367 140.745 40.0367 140.79C40.0367 140.834 40.0265 140.878 40.007 140.918C39.9634 140.976 39.9026 141.019 39.8331 141.041C39.7635 141.063 39.6889 141.062 39.6199 141.039C39.3697 140.965 39.1509 140.811 38.9978 140.6C38.8596 140.441 38.4967 139.794 38.9563 139.801ZM41.2062 132.799C41.2369 132.795 41.2681 132.8 41.2964 132.812C41.3247 132.824 41.3491 132.844 41.3669 132.87C41.3847 132.895 41.3953 132.925 41.3974 132.955C41.3995 132.986 41.3932 133.017 41.379 133.045C41.3481 133.091 41.3051 133.129 41.2547 133.153C41.2042 133.178 41.148 133.188 41.0922 133.183C40.7604 133.173 41.0231 132.83 41.2062 132.799ZM44.5102 139.971L44.5517 139.867C44.5932 139.763 44.6519 139.646 44.7591 139.625C44.8089 139.622 44.8584 139.634 44.901 139.66C44.9436 139.686 44.9772 139.725 44.9975 139.77C45.0169 139.799 45.0289 139.833 45.0325 139.868C45.0361 139.903 45.0312 139.938 45.0183 139.971C44.9768 140.05 44.8766 140.078 44.804 140.137C44.7314 140.195 44.6554 140.309 44.5517 140.264C44.448 140.219 44.4791 140.043 44.5102 139.971ZM40.9159 125.801C40.9871 125.807 41.0563 125.827 41.1198 125.86C41.2704 125.923 41.4076 126.015 41.5242 126.129C41.5821 126.187 41.6272 126.256 41.6563 126.332C41.6855 126.408 41.6982 126.49 41.6935 126.571C41.6908 126.602 41.6826 126.631 41.6694 126.658C41.6489 126.682 41.6235 126.702 41.5949 126.715C41.5663 126.729 41.5352 126.737 41.5035 126.737C41.3766 126.747 41.2491 126.734 41.1268 126.699C41.0613 126.687 40.9976 126.667 40.9367 126.641C40.7051 126.53 40.5012 126.153 40.6878 125.922C40.7143 125.886 40.7486 125.856 40.7881 125.835C40.8276 125.814 40.8713 125.802 40.9159 125.801Z" fill="#4C2734"/>
<path d="M46.8885 122.435C47.0023 122.409 47.1203 122.409 47.2341 122.435C47.3724 122.447 47.5097 122.467 47.6454 122.497C47.662 122.499 47.6777 122.506 47.6903 122.518C47.7145 122.549 47.6903 122.594 47.6523 122.618C47.5374 122.7 47.4026 122.75 47.2617 122.763C47.1681 122.779 47.0721 122.771 46.9818 122.742C46.8816 122.69 46.7088 122.493 46.8885 122.435ZM51.689 125.801C51.6503 125.871 51.5959 125.931 51.53 125.977C51.4958 125.998 51.4558 126.007 51.416 126.003C51.3761 125.999 51.3386 125.983 51.3088 125.956C51.2786 125.913 51.2628 125.861 51.2639 125.808C51.2704 125.625 51.3066 125.444 51.371 125.272C51.4056 125.175 51.4367 125.075 51.4678 124.975C51.5507 124.726 51.6302 124.477 51.727 124.235C51.7684 124.131 51.8721 123.941 52.0104 124.031C52.1486 124.121 52.1175 124.322 52.121 124.439C52.1218 124.747 52.0582 125.052 51.9343 125.334C51.865 125.496 51.7829 125.652 51.689 125.801ZM56.8385 127.29C56.94 127.427 57.0086 127.586 57.0389 127.753C57.0516 127.837 57.0409 127.923 57.008 128.001C56.975 128.079 56.9212 128.146 56.8523 128.196C56.8055 128.228 56.7491 128.243 56.6925 128.239C56.636 128.234 56.5826 128.211 56.5413 128.172C56.4917 128.096 56.4708 128.005 56.4825 127.916V127.57C56.4811 127.478 56.4904 127.387 56.5102 127.297C56.5758 127.097 56.7348 127.135 56.8385 127.29ZM50.4206 135.07C50.5088 135.382 50.5088 135.712 50.4206 136.024C50.3895 136.165 50.3307 136.324 50.1925 136.369C50.1116 136.385 50.0277 136.37 49.9577 136.326C49.8878 136.283 49.837 136.214 49.8158 136.134C49.7765 135.974 49.7648 135.808 49.7812 135.644C49.7656 135.501 49.7656 135.358 49.7812 135.215C49.8676 134.89 50.2823 134.666 50.4206 135.07ZM52.0449 139.542C52.1042 139.605 52.1491 139.681 52.1763 139.763C52.2408 139.92 52.2995 140.079 52.3525 140.24C52.3884 140.323 52.3992 140.414 52.3836 140.503C52.341 140.611 52.263 140.701 52.1624 140.759C52.0933 140.81 52 140.862 51.924 140.821C51.8969 140.804 51.8734 140.781 51.8548 140.755C51.805 140.7 51.7652 140.637 51.7373 140.569C51.7168 140.502 51.7063 140.434 51.7062 140.365C51.7062 140.154 51.689 139.94 51.6786 139.729C51.6682 139.518 51.8652 139.369 52.0449 139.542ZM43.0834 136.663C43.1373 136.76 43.1579 136.872 43.1421 136.981C43.1325 137.167 43.0964 137.351 43.035 137.527C43.0073 137.607 42.959 137.693 42.876 137.707C42.7931 137.721 42.6997 137.631 42.6721 137.538C42.6504 137.423 42.6504 137.306 42.6721 137.192C42.6686 137.061 42.762 136.169 43.0834 136.663ZM46.1247 129.889C46.2251 129.835 46.3336 129.796 46.4461 129.775C46.612 129.734 46.7917 129.699 46.9542 129.668C47.0178 129.647 47.0852 129.638 47.1522 129.643C47.2192 129.648 47.2847 129.666 47.3447 129.696C47.4082 129.758 47.4491 129.84 47.461 129.928C47.4729 130.016 47.4551 130.106 47.4104 130.183C47.3409 130.32 47.2499 130.445 47.1408 130.553C47.0197 130.69 46.8773 130.807 46.7191 130.898C46.5596 130.992 46.3698 131.019 46.1904 130.974C46.0824 130.934 45.9885 130.864 45.92 130.771C45.8514 130.679 45.8113 130.568 45.8043 130.453C45.7973 130.338 45.8239 130.224 45.8808 130.124C45.9377 130.024 46.0224 129.942 46.1247 129.889ZM39.3301 134.361C39.4641 134.358 39.5981 134.365 39.731 134.382C39.812 134.375 39.8927 134.397 39.9591 134.444C39.9757 134.468 39.9872 134.494 39.9927 134.522C39.9983 134.55 39.9978 134.579 39.9912 134.607C39.9847 134.635 39.9722 134.661 39.9548 134.683C39.9373 134.706 39.9152 134.725 39.89 134.738C39.7833 134.792 39.6621 134.81 39.5444 134.79H39.2644C38.8773 134.755 39.0156 134.399 39.3301 134.361ZM37.3532 130.923C37.3796 130.891 37.4162 130.869 37.4569 130.86C37.5364 130.86 37.5986 130.95 37.5813 131.03C37.5567 131.108 37.5069 131.176 37.4396 131.223C37.3636 131.286 37.0145 131.607 36.9074 131.451C36.8003 131.296 37.2703 130.985 37.3532 130.923ZM51.3779 132.115C51.4108 132.077 51.4507 132.045 51.4954 132.022C51.5937 131.957 51.7024 131.909 51.8168 131.88C51.8762 131.865 51.9381 131.864 51.9979 131.877C52.0577 131.889 52.1139 131.915 52.1624 131.953C52.1808 131.965 52.1961 131.982 52.2074 132.001C52.2139 132.023 52.2157 132.046 52.2127 132.068C52.2097 132.091 52.202 132.113 52.1901 132.132C52.1465 132.213 52.0892 132.286 52.0207 132.347C51.9859 132.381 51.9477 132.413 51.9067 132.44C51.7512 132.537 51.4436 132.512 51.3745 132.309C51.3603 132.278 51.3533 132.245 51.3539 132.211C51.3545 132.178 51.3627 132.145 51.3779 132.115ZM51.6717 127.183C51.6994 127.104 51.7429 127.031 51.7996 126.969C51.8617 126.89 51.9286 126.815 52 126.744C52.0068 126.735 52.0165 126.727 52.0276 126.724C52.0588 126.724 52.076 126.758 52.076 126.789C52.082 126.89 52.0592 126.991 52.0104 127.08C51.9855 127.144 51.9437 127.2 51.8894 127.242C51.841 127.277 51.6371 127.304 51.6717 127.183ZM55.5978 125.576C55.6265 125.627 55.6419 125.684 55.6427 125.742C55.642 125.771 55.6318 125.799 55.6137 125.821C55.5955 125.844 55.5705 125.86 55.5425 125.866C55.5042 125.869 55.4662 125.858 55.4353 125.835C55.3262 125.761 55.2304 125.669 55.1519 125.562L55.0102 125.386C54.8927 125.241 54.7718 125.096 54.6646 124.94C54.6197 124.875 54.5437 124.736 54.6646 124.688C54.7856 124.64 54.8824 124.736 54.9549 124.781C55.1425 124.901 55.3026 125.059 55.425 125.244C55.4917 125.35 55.5495 125.461 55.5978 125.576ZM58.5147 123.036C58.6331 123.031 58.7511 123.052 58.8603 123.098C58.9155 123.124 58.9629 123.165 58.9975 123.215C59.0321 123.265 59.0527 123.324 59.0573 123.385C59.0576 123.426 59.0441 123.465 59.019 123.497C58.9939 123.529 58.9586 123.552 58.919 123.561C58.8546 123.563 58.7919 123.541 58.7428 123.499L58.5389 123.364C58.4826 123.329 58.4305 123.287 58.3833 123.24C58.2935 123.112 58.3799 123.036 58.5147 123.036ZM61.8636 126.26C61.8818 126.181 61.9084 126.103 61.9431 126.029C61.99 125.838 62.0572 125.653 62.1435 125.476C62.1703 125.431 62.2085 125.394 62.2541 125.369C62.2768 125.356 62.3024 125.349 62.3284 125.349C62.3545 125.349 62.38 125.356 62.4027 125.369C62.4303 125.392 62.4517 125.422 62.4649 125.456C62.4782 125.49 62.4829 125.526 62.4788 125.562C62.4726 125.772 62.4293 125.979 62.3509 126.174C62.3263 126.273 62.2777 126.364 62.2092 126.44C62.1814 126.478 62.1409 126.505 62.0951 126.516C62.0492 126.527 62.0009 126.521 61.9591 126.499C61.9173 126.477 61.8847 126.441 61.8672 126.397C61.8496 126.354 61.8484 126.305 61.8636 126.26ZM55.8984 130.553C55.9045 130.471 55.9231 130.391 55.9537 130.314C55.9952 130.193 56.0401 130.079 56.0885 129.969C56.0994 129.922 56.1201 129.877 56.1493 129.838C56.1785 129.8 56.2155 129.768 56.2579 129.744C56.3207 129.729 56.3869 129.736 56.4454 129.763C56.5039 129.791 56.5511 129.838 56.5793 129.896C56.6352 129.992 56.676 130.096 56.7002 130.204C56.7358 130.331 56.7509 130.463 56.7452 130.594C56.7375 130.725 56.6808 130.849 56.5862 130.94C56.5192 130.99 56.4392 131.019 56.3558 131.024C56.2725 131.03 56.1894 131.011 56.1167 130.97C56.0439 130.929 55.9846 130.868 55.9458 130.794C55.9071 130.72 55.8906 130.636 55.8984 130.553ZM53.0921 136.283C53.0818 136.255 53.0818 136.224 53.0921 136.197C53.1015 136.186 53.1132 136.177 53.1263 136.171C53.1394 136.165 53.1537 136.162 53.1681 136.162C53.1826 136.162 53.1969 136.165 53.21 136.171C53.2231 136.177 53.2348 136.186 53.2442 136.197C53.2823 136.242 53.3042 136.3 53.3064 136.359C53.3064 136.428 53.3721 136.767 53.2373 136.77C53.1025 136.774 53.1059 136.362 53.0921 136.283ZM47.6385 114.527C47.7528 114.445 47.8837 114.388 48.0221 114.361C48.3288 114.269 48.6499 114.235 48.969 114.261C49.1288 114.276 49.2836 114.324 49.4235 114.403C49.5634 114.482 49.6853 114.589 49.7812 114.717C49.816 114.766 49.8397 114.821 49.8503 114.88C49.8528 114.945 49.8404 115.01 49.8141 115.07C49.7877 115.13 49.7481 115.183 49.6983 115.225C49.518 115.397 49.31 115.537 49.0831 115.64C48.9703 115.697 48.8522 115.743 48.7306 115.778C48.2467 115.899 47.4657 115.585 47.4622 115.001C47.454 114.913 47.4656 114.826 47.4961 114.744C47.5266 114.662 47.5753 114.588 47.6385 114.527ZM52.4666 101.954C52.6024 101.769 52.7755 101.615 52.9746 101.501C53.197 101.349 53.4278 101.209 53.6658 101.083C53.6929 101.064 53.7261 101.055 53.7591 101.059C53.8386 101.059 53.849 101.183 53.8317 101.259C53.7567 101.521 53.6163 101.758 53.4239 101.95C53.302 102.093 53.1464 102.204 52.9712 102.272C52.7742 102.358 52.2696 102.275 52.4666 101.954ZM63.9372 101.055C63.9685 101.21 63.9614 101.37 63.9165 101.522C63.8937 101.595 63.8474 101.658 63.7849 101.702C63.7224 101.746 63.6471 101.767 63.5709 101.764C63.4703 101.739 63.3812 101.681 63.3186 101.598C63.0984 101.314 62.9278 100.995 62.814 100.654L62.5859 100.084C62.3958 99.6073 62.2057 99.1303 62.0502 98.6396C61.9846 98.4357 61.9016 98.0106 62.223 97.9795C62.4891 97.9518 62.7483 98.2836 62.9142 98.4599C63.3021 98.9235 63.5872 99.4642 63.7506 100.046C63.8405 100.377 63.9029 100.714 63.9372 101.055ZM73.5935 96.8528C73.9191 96.9314 74.2212 97.0866 74.4748 97.3055C74.6006 97.4157 74.6929 97.559 74.7412 97.7191C74.7895 97.8792 74.7918 98.0497 74.7478 98.211C74.716 98.3164 74.6495 98.4078 74.5592 98.4706C74.4688 98.5333 74.3599 98.5637 74.2501 98.5566C74.0793 98.5053 73.9331 98.3935 73.8388 98.2421L73.4241 97.7272C73.3067 97.5917 73.2068 97.4419 73.1269 97.2814C72.9575 96.8908 73.2444 96.7457 73.5935 96.8528ZM60.6367 114.192C60.7247 113.986 60.8411 113.792 60.9823 113.618C61.1827 113.349 61.4005 113.086 61.6148 112.823C61.6847 112.711 61.7763 112.614 61.8843 112.537C61.9923 112.46 62.1145 112.406 62.2438 112.377C62.5894 112.35 62.8624 112.695 62.935 113.034C63.0008 113.328 63.0183 113.63 62.9868 113.929C62.9774 114.283 62.9108 114.633 62.7898 114.966C62.6679 115.304 62.4204 115.583 62.0986 115.744C61.1171 116.186 60.3015 115.087 60.6367 114.192Z" fill="#4C2734"/>
<path d="M55.9499 129.468C56.1486 129.293 56.3612 129.134 56.5858 128.994C56.6979 128.881 56.8482 128.813 57.0074 128.804C57.0615 128.819 57.1117 128.845 57.1549 128.881C57.1981 128.917 57.2333 128.961 57.2581 129.011C57.2829 129.062 57.2968 129.117 57.2989 129.173C57.3009 129.229 57.2911 129.284 57.2701 129.336C57.1743 129.543 57.0191 129.716 56.8243 129.834L56.3784 130.162C55.7564 130.639 55.5179 129.913 55.9499 129.468ZM48.6542 126.734C48.6568 126.653 48.6846 126.574 48.7336 126.509C48.7655 126.486 48.8021 126.47 48.8407 126.463C48.8794 126.455 48.9193 126.456 48.9575 126.466C48.9957 126.475 49.0314 126.493 49.0619 126.518C49.0925 126.543 49.1173 126.574 49.1345 126.609C49.1973 126.76 49.2071 126.927 49.1622 127.083C49.1276 127.27 49.0032 128.196 48.6472 128.092C48.2913 127.988 48.623 126.948 48.6542 126.734ZM29.632 132.623C29.6715 132.437 29.7504 132.261 29.8636 132.108C30.0606 131.797 30.2714 131.496 30.4926 131.206C30.5977 131.038 30.7489 130.904 30.928 130.819C31.1708 130.763 31.4256 130.791 31.6503 130.898C31.8301 130.961 32.0374 131.057 32.0616 131.244C32.0668 131.316 32.0562 131.388 32.0305 131.455C31.9902 131.61 31.9261 131.758 31.8404 131.894C31.749 132.011 31.6407 132.113 31.519 132.198L30.4131 133.038C30.0467 133.321 29.5525 133.155 29.632 132.623ZM38.3309 130.231C38.5299 129.826 38.8582 129.499 39.264 129.302C39.6656 129.108 40.0875 128.959 40.522 128.859C40.7196 128.794 40.9258 128.759 41.1338 128.756C41.2376 128.753 41.3407 128.775 41.4352 128.818C41.5297 128.861 41.6134 128.925 41.6798 129.005C41.7623 129.152 41.7975 129.321 41.7808 129.489C41.7641 129.657 41.6963 129.816 41.5865 129.945C41.2026 130.411 40.6773 130.74 40.09 130.881C39.6166 131.023 37.9024 131.216 38.3309 130.231ZM25.3396 119.061C25.359 118.991 25.3974 118.928 25.4506 118.878C25.5037 118.828 25.5696 118.793 25.641 118.778C25.7124 118.763 25.7865 118.768 25.8552 118.793C25.924 118.817 25.9847 118.86 26.0308 118.916C26.1036 119.025 26.1457 119.151 26.1524 119.281C26.1591 119.411 26.1302 119.541 26.0688 119.656C25.7439 120.361 25.2463 119.487 25.3396 119.061ZM43.6982 118.45L43.5081 118.263C43.3215 118.083 43.1175 117.852 43.1625 117.6C43.2016 117.491 43.2728 117.397 43.3666 117.33C43.4604 117.262 43.5724 117.225 43.6878 117.223C43.7683 117.209 43.851 117.214 43.9291 117.238C44.0073 117.262 44.0785 117.304 44.1371 117.361C44.2753 117.52 44.2408 117.762 44.2995 117.966C44.3583 118.17 44.5414 118.443 44.3479 118.629C44.1544 118.816 43.8571 118.602 43.6982 118.45ZM56.2126 120.496C56.1987 120.395 56.1987 120.292 56.2126 120.192C56.2296 120.099 56.2682 120.013 56.3252 119.938C56.3823 119.864 56.4561 119.804 56.5407 119.763C56.6253 119.723 56.7182 119.703 56.812 119.705C56.9057 119.708 56.9976 119.732 57.08 119.777C57.143 119.807 57.1967 119.854 57.2355 119.912C57.2774 120.004 57.2973 120.105 57.2937 120.206C57.2901 120.307 57.2631 120.407 57.2148 120.496C57.1388 120.713 56.9936 121.139 56.7137 121.187C56.375 121.211 56.2437 120.745 56.2126 120.496ZM44.6106 139.027C44.984 138.602 45.4804 138.304 46.031 138.173C46.3087 138.114 46.5984 138.152 46.8507 138.283C47.1029 138.413 47.3018 138.628 47.4134 138.889C47.4542 139.019 47.4663 139.156 47.449 139.29C47.4317 139.425 47.3854 139.555 47.3132 139.67C47.0949 139.949 46.801 140.159 46.4665 140.275C45.9342 140.52 45.1186 140.883 44.5276 140.603C43.8122 140.275 44.2373 139.414 44.6106 139.027ZM30.102 133.57C30.1985 133.657 30.2722 133.766 30.3163 133.888C30.3389 133.95 30.3399 134.018 30.3192 134.081C30.2986 134.143 30.2573 134.197 30.2023 134.234C30.1244 134.27 30.0356 134.276 29.9534 134.251C29.6669 134.173 29.3957 134.047 29.1516 133.878L28.7196 133.615C28.374 133.394 28.0007 133.173 27.6551 132.924C27.51 132.82 27.2473 132.578 27.4443 132.402C27.6413 132.226 27.9385 132.343 28.1355 132.381C28.621 132.495 29.0768 132.711 29.473 133.014C29.6975 133.182 29.9079 133.368 30.102 133.57ZM34.3772 126.039C34.6302 125.932 34.9046 125.885 35.179 125.901C35.3164 125.913 35.4479 125.962 35.5589 126.044C35.6699 126.125 35.7561 126.236 35.808 126.364C35.8402 126.449 35.8423 126.543 35.814 126.63C35.7858 126.717 35.7288 126.791 35.6525 126.841C35.5152 126.891 35.3646 126.891 35.2274 126.841L34.6986 126.706C34.5537 126.674 34.4132 126.624 34.2804 126.558C33.9728 126.378 34.0903 126.146 34.3772 126.039ZM43.8018 130.401C43.7846 130.219 43.7846 130.036 43.8018 129.855C43.7568 129.417 43.7568 128.976 43.8018 128.538C43.8269 128.424 43.8804 128.318 43.9574 128.23C43.9969 128.187 44.0468 128.154 44.1025 128.136C44.1581 128.117 44.2176 128.113 44.2753 128.123C44.4308 128.158 44.5207 128.32 44.576 128.469C44.7146 128.916 44.7766 129.383 44.7592 129.851C44.7783 130.081 44.7416 130.312 44.652 130.525C44.6127 130.614 44.5451 130.688 44.4598 130.735C44.3745 130.782 44.2761 130.8 44.1796 130.786C44.0832 130.772 43.994 130.727 43.9258 130.657C43.8575 130.588 43.814 130.497 43.8018 130.401Z" fill="#4C2734"/>
<path d="M44.175 139.065C44.6982 139.041 45.2181 139.161 45.6783 139.411C45.8857 139.514 46.1138 139.67 46.1346 139.902C46.1553 140.133 45.8857 140.378 45.6196 140.406C45.3526 140.407 45.0873 140.362 44.8351 140.275C44.6058 140.241 44.381 140.181 44.1646 140.099C43.6807 139.867 43.4838 139.131 44.175 139.065ZM57.2389 129.119C57.2873 129.094 57.3416 129.084 57.3957 129.088C57.4498 129.093 57.5015 129.112 57.5452 129.145C57.5888 129.177 57.6227 129.221 57.6431 129.271C57.6634 129.321 57.6695 129.376 57.6605 129.43C57.6363 129.523 57.5871 129.608 57.5183 129.676C57.4496 129.743 57.3637 129.791 57.27 129.813C56.717 129.986 56.9589 129.274 57.2389 129.119ZM37.4426 134.787C37.545 134.709 37.6628 134.653 37.7882 134.624C38.0798 134.534 38.3859 134.5 38.6902 134.524C38.8428 134.538 38.9908 134.583 39.1247 134.658C39.2586 134.732 39.3755 134.834 39.4678 134.956C39.5022 135.002 39.5248 135.055 39.5335 135.111C39.5342 135.171 39.5219 135.229 39.4974 135.283C39.4729 135.337 39.4369 135.384 39.3918 135.422C39.2201 135.587 39.0228 135.722 38.8077 135.823C38.6974 135.882 38.5817 135.929 38.4621 135.965C37.999 136.086 37.2525 135.785 37.2456 135.232C37.2422 135.148 37.2581 135.064 37.2923 134.987C37.3264 134.909 37.3778 134.841 37.4426 134.787ZM41.9804 122.784C42.1079 122.605 42.2731 122.456 42.4642 122.348C42.6775 122.201 42.8991 122.066 43.1278 121.944C43.1548 121.927 43.186 121.919 43.2176 121.92C43.2937 121.92 43.304 122.037 43.2868 122.113C43.2189 122.368 43.0854 122.6 42.8997 122.787C42.7874 122.925 42.6408 123.031 42.4746 123.095C42.2741 123.16 41.7937 123.084 41.9804 122.784ZM52.9222 121.864C52.9587 122.01 52.9587 122.162 52.9222 122.307C52.8982 122.378 52.8514 122.44 52.789 122.482C52.7266 122.525 52.652 122.546 52.5766 122.542C52.4796 122.519 52.3939 122.463 52.3347 122.383C52.1225 122.114 51.9577 121.812 51.8474 121.488L51.6297 120.945C51.4465 120.489 51.2633 120.036 51.1113 119.563C51.0456 119.369 50.9661 118.965 51.2737 118.934C51.526 118.906 51.7748 119.217 51.9234 119.386C52.2946 119.827 52.5689 120.34 52.7287 120.893C52.8192 121.211 52.884 121.536 52.9222 121.864ZM62.0981 117.807C62.4078 117.882 62.6956 118.029 62.9379 118.235C63.0584 118.34 63.1472 118.475 63.1943 118.628C63.2413 118.78 63.2447 118.942 63.204 119.096C63.1765 119.199 63.1145 119.29 63.0283 119.352C62.9422 119.415 62.8371 119.447 62.7305 119.442C62.5684 119.394 62.4294 119.288 62.34 119.144C62.2052 118.982 62.0739 118.82 61.9426 118.654C61.8268 118.527 61.7302 118.383 61.6557 118.229C61.4898 117.852 61.7628 117.707 62.0981 117.807ZM49.8325 134.406C49.9138 134.209 50.022 134.024 50.1539 133.857C50.3475 133.598 50.5514 133.345 50.7518 133.093C50.8874 132.878 51.1022 132.725 51.3497 132.668C51.6953 132.637 51.9442 132.965 52.041 133.29C52.1026 133.57 52.1213 133.858 52.0963 134.144C52.0893 134.485 52.0274 134.824 51.9131 135.146C51.7958 135.472 51.5567 135.739 51.2461 135.892C50.2991 136.304 49.5146 135.263 49.8325 134.406Z" fill="#4C2734"/>
</g>
</g>
<path d="M39.9831 101.187L39.2919 100.001L35.8359 102.026C31.6886 104.477 28.6853 106.246 27.8351 106.792C27.2199 107.179 27.054 107.103 27.0471 107.1C27.0402 107.096 27.0056 107.1 26.9503 106.958L22.3261 98.8952L21.1338 99.5864L25.7269 107.566C25.8619 107.891 26.1066 108.157 26.4181 108.32C27.2752 108.745 28.2256 108.147 28.5401 107.95C29.3765 107.425 32.3763 105.659 36.5305 103.215L39.9831 101.187ZM56.3337 65.5062C56.0923 64.1664 55.4639 62.9265 54.5262 61.9396L55.4179 61.0859C56.5252 62.2484 57.2657 63.7113 57.5468 65.2919L56.3337 65.5062ZM59.6135 76.2442L58.3866 76.0887C58.6679 73.9184 58.6551 71.7201 58.3486 69.5533C58.1571 68.2803 57.894 67.0192 57.5606 65.7758L57.5261 65.6445L58.7253 65.3472L58.7599 65.4751C59.1024 66.7609 59.3736 68.0647 59.5721 69.3805C59.8935 71.6562 59.9074 73.9648 59.6135 76.2442ZM53.4376 130.421L53.1853 129.212C54.5785 128.922 55.9503 128.538 57.2911 128.061L57.7023 129.226C56.309 129.719 54.8842 130.118 53.4376 130.421ZM98.1106 70.6868L97.2811 70.1512C97.7743 69.3841 98.1016 68.5224 98.2419 67.6213L99.2165 67.7734C99.0559 68.8113 98.6792 69.8038 98.1106 70.6868ZM95.9436 72.1142C94.241 70.1797 92.2925 68.4764 90.1478 67.0476L89.8022 66.8195L89.9647 66.4428C90.5418 65.0915 91.4127 63.049 93.7076 62.9073C94.1363 62.8891 94.565 62.9429 94.9759 63.0662C96.6659 63.5224 98.1693 64.6111 98.9055 65.9106L98.0449 66.3979C97.4367 65.3196 96.1614 64.4072 94.7202 64.0201C94.4113 63.9261 94.089 63.884 93.7663 63.8957C92.3355 63.9821 91.6478 65.0777 91.0326 66.4566C93.117 67.8899 95.0151 69.5767 96.6832 71.4783L95.9436 72.1142ZM94.3677 76.4239C93.4479 75.3533 92.4335 74.3677 91.3367 73.4793L92.1178 72.522C93.2704 73.4619 94.3368 74.5029 95.3043 75.6325L94.3677 76.4239ZM92.1109 80.2774C91.9226 79.9792 91.6813 79.718 91.3989 79.5067C90.7238 78.9284 90.0418 78.3605 89.3529 77.8029L90.1271 76.8456C90.8183 77.4077 91.5095 77.9838 92.2007 78.5736C92.5991 78.8818 92.9367 79.2615 93.1961 79.6933L92.1109 80.2774ZM64.5073 58.4835C64.2449 56.0625 63.7825 53.6673 63.1249 51.3225L64.3138 50.9769C64.995 53.3876 65.4725 55.8512 65.7411 58.3418L64.5073 58.4835Z" fill="#4C2734"/>
<path d="M57.8962 66.1629L57.6992 64.9463C58.8856 64.7565 60.0339 64.3772 61.1 63.8231C62.6216 63.032 63.9457 61.9087 64.9742 60.5364L65.3198 60.0698L65.8071 60.3912C67.2888 61.3746 68.889 62.1666 70.5696 62.7483C71.212 62.9904 71.8946 63.1077 72.581 63.0939C72.8876 63.0869 73.193 63.0522 73.4934 62.9902L73.6524 62.9556L73.8079 63.0075C74.2676 63.1561 74.7514 63.2978 75.2594 63.4257C76.7458 63.7983 78.264 64.0298 79.7938 64.1169L79.7212 65.3507C78.1087 65.2614 76.5084 65.0195 74.9415 64.6284C74.4646 64.5074 74.0049 64.3761 73.5591 64.2378C73.2382 64.2941 72.9136 64.3265 72.5879 64.3346C71.7555 64.3427 70.9286 64.1987 70.1479 63.9095C68.5481 63.3586 67.0164 62.6269 65.5825 61.7287C64.5021 63.0434 63.168 64.1271 61.6599 64.9152C60.4799 65.5291 59.2093 65.9503 57.8962 66.1629Z" fill="#4C2734"/>
<path d="M69.2359 67.9842C69.2131 66.5849 68.8964 65.2061 68.3062 63.9371L69.426 63.4153C70.0855 64.8472 70.4386 66.401 70.4628 67.9773L69.2359 67.9842ZM62.3134 70.2963C61.9777 69.6486 61.4948 69.0887 60.9033 68.6616L61.6222 67.6593C62.3727 68.2002 62.9849 68.9107 63.409 69.733L62.3134 70.2963Z" fill="#4C2734"/>
</svg>
