<svg width="81" height="32" viewBox="0 0 81 32" fill="none" xmlns="http://www.w3.org/2000/svg">
<g clip-path="url(#clip0_142_1021)">
<path d="M14.2344 13.7891H10.4844V10.0391" stroke="#6B7280" stroke-width="1.25" stroke-linecap="round" stroke-linejoin="round"/>
<path d="M13.1406 20.8594C14.1019 21.8214 15.3269 22.4768 16.6607 22.7425C17.9944 23.0082 19.3771 22.8724 20.6336 22.3522C21.8902 21.832 22.9642 20.9508 23.7199 19.8201C24.4756 18.6894 24.879 17.36 24.879 16C24.879 14.64 24.4756 13.3106 23.7199 12.1799C22.9642 11.0492 21.8902 10.168 20.6336 9.64779C19.3771 9.12761 17.9944 8.99179 16.6607 9.25752C15.3269 9.52324 14.1019 10.1786 13.1406 11.1406L10.4844 13.7891" stroke="#6B7280" stroke-width="1.25" stroke-linecap="round" stroke-linejoin="round"/>
</g>
<path d="M37.3309 19.5H38.4509V15.3H41.3069L43.2809 19.514H44.5129L42.4689 15.202C43.7709 14.908 44.5409 13.858 44.5409 12.5C44.5409 10.904 43.4209 9.7 41.6009 9.7H37.3309V19.5ZM38.4509 14.236V10.778H41.5589C42.7349 10.778 43.4209 11.436 43.4209 12.5C43.4209 13.564 42.7489 14.236 41.5589 14.236H38.4509ZM48.4844 12.584C46.5244 12.584 45.1944 14.138 45.1944 16.154C45.1944 18.198 46.5524 19.71 48.5824 19.71C50.1504 19.71 51.4664 18.646 51.6624 17.176L50.5984 16.98C50.4444 18.03 49.6324 18.688 48.5824 18.688C47.2804 18.688 46.3704 17.75 46.2724 16.294H51.4804V15.72C51.4804 13.872 50.2904 12.584 48.4844 12.584ZM46.3284 15.342C46.5944 14.278 47.4064 13.578 48.4844 13.578C49.6044 13.578 50.3604 14.32 50.4024 15.342H46.3284ZM52.3526 13.788H53.6406V17.176C53.6406 18.744 54.6066 19.71 56.1606 19.71C57.5326 19.71 58.5826 18.674 58.4986 17.078L57.4066 16.98C57.4626 18.002 56.9586 18.674 56.1186 18.674C55.2646 18.674 54.7606 18.156 54.7606 17.204V13.788H58.2746V12.78H54.7606V10.736H53.6406V12.78H52.3526V13.788ZM59.7915 19.5H60.9115V15.678C60.9115 14.39 61.5275 13.62 62.4375 13.62C63.1795 13.62 63.6415 14.124 63.6415 15.076C63.6415 15.23 63.6415 15.342 63.6275 15.426L64.7615 15.272V14.992C64.7615 13.438 63.9355 12.57 62.7035 12.57C61.9195 12.57 61.3175 12.892 60.9115 13.522V12.78H59.7915V19.5ZM65.4262 19.92C65.3422 21.698 66.6722 22.846 68.4362 22.846C70.4102 22.846 71.7682 21.376 71.7682 19.388V12.78H70.6482V16.014C70.6482 17.456 69.8782 18.352 68.6882 18.352C67.5962 18.352 67.0502 17.764 67.0502 16.574V12.78H65.9162L65.9442 16.798C65.9442 18.408 66.8402 19.374 68.3522 19.388C69.3462 19.374 70.1162 19.01 70.6482 18.296V19.43C70.6482 20.886 69.7802 21.838 68.4362 21.838C67.2602 21.838 66.4202 21.082 66.5182 19.794L65.4262 19.92Z" fill="#6B7280"/>
<rect x="0.5" y="0.5" width="80" height="31" rx="3.5" stroke="#6B7280"/>
<defs>
<clipPath id="clip0_142_1021">
<rect width="20" height="20" fill="white" transform="translate(8 6)"/>
</clipPath>
</defs>
</svg>
